<?xml version="1.0" encoding="iso-8859-1"?>
<!-- Generator: Adobe Illustrator 19.0.0, SVG Export Plug-In . SVG Version: 6.00 Build 0)  -->
<svg version="1.1" id="Capa_1" xmlns="http://www.w3.org/2000/svg" xmlns:xlink="http://www.w3.org/1999/xlink" x="0px" y="0px"
	 viewBox="0 0 511.995 511.995" style="enable-background:new 0 0 511.995 511.995;" xml:space="preserve">
<polygon style="fill:#FFD33F;" points="38.401,255.999 4.268,221.867 55.468,221.867 89.6,255.999 55.468,290.132 4.268,290.132 "/>
<path style="fill:#EA3836;" d="M465.061,264.533H12.802c-4.71,0-8.533-3.823-8.533-8.533c0-4.71,3.823-8.533,8.533-8.533h452.259
	c4.71,0,8.533,3.823,8.533,8.533C473.594,260.71,469.78,264.533,465.061,264.533z"/>
<polygon style="fill:#FFD33F;" points="507.727,255.999 465.061,230.4 465.061,281.599 "/>
<path style="fill:#383856;" d="M294.397,511.995c-2.739,0-5.308-1.306-6.912-3.524L108.288,261.008
	c-2.167-2.987-2.167-7.031,0-10.018L287.485,3.528c2.765-3.814,8.098-4.668,11.912-1.911c2.219,1.604,3.533,4.181,3.533,6.92
	c0,1.869,0.085,3.72,0.256,5.538c2.534,19.72,15.872,36.377,34.568,43.169c20.164,7.893,38.997,18.833,55.85,32.426
	c3.567,3.08,3.959,8.473,0.879,12.032c-2.927,3.388-7.97,3.934-11.562,1.263c-15.505-12.51-32.827-22.579-51.37-29.866
	c-19.695-7.475-35.14-23.185-42.273-42.999L125.738,255.999l163.539,225.865c7.211-20.019,22.869-35.839,42.811-43.255
	c18.338-7.262,35.481-17.254,50.832-29.636c3.78-2.816,9.122-2.039,11.946,1.732c2.679,3.584,2.125,8.636-1.263,11.562
	c-16.691,13.474-35.327,24.337-55.27,32.23c-19.063,6.69-32.691,23.611-35.174,43.664c-0.154,1.707-0.23,3.49-0.23,5.273
	c0,4.71-3.823,8.533-8.533,8.533V511.995z"/>
<path style="fill:#874D1B;" d="M430.928,255.999c-0.009-17.263,2.364-34.44,7.048-51.054c6.741-24.362,1.869-50.465-13.192-70.757
	c-10.504-14.122-22.775-26.837-36.522-37.828v105.231c0.239,12.817,2.313,25.54,6.152,37.768c3.174,10.863,3.174,22.417,0,33.279
	c-3.84,12.228-5.913,24.951-6.152,37.768v105.24c13.653-10.922,25.856-23.543,36.317-37.546
	c15.198-20.343,20.138-46.566,13.397-71.047C433.283,290.439,430.911,273.262,430.928,255.999z"/>
<path style="fill:#6B3713;" d="M431.909,274.201c-12.296,43.698-29.465,68.957-43.647,83.344v58.128
	c13.653-10.922,25.856-23.543,36.317-37.546c15.198-20.343,20.138-46.566,13.397-71.047
	C434.981,296.319,432.95,285.32,431.909,274.201z"/>
<path style="fill:#FFAC3E;" d="M465.061,271.615v9.984l42.666-25.6l-9.6-5.76C489.739,260.778,478.125,268.287,465.061,271.615z"/>
<g>
</g>
<g>
</g>
<g>
</g>
<g>
</g>
<g>
</g>
<g>
</g>
<g>
</g>
<g>
</g>
<g>
</g>
<g>
</g>
<g>
</g>
<g>
</g>
<g>
</g>
<g>
</g>
<g>
</g>
</svg>
