<?xml version="1.0" encoding="iso-8859-1"?>
<!-- Generator: Adobe Illustrator 19.0.0, SVG Export Plug-In . SVG Version: 6.00 Build 0)  -->
<svg version="1.1" id="Capa_1" xmlns="http://www.w3.org/2000/svg" xmlns:xlink="http://www.w3.org/1999/xlink" x="0px" y="0px"
	 viewBox="0 0 512 512" style="enable-background:new 0 0 512 512;" xml:space="preserve">
<polygon style="fill:#874D1B;" points="229.517,70.621 264.828,0 35.31,0 70.621,70.621 114.759,70.621 114.759,167.724 
	70.621,167.724 70.621,238.345 229.517,238.345 229.517,167.724 185.379,167.724 185.379,70.621 "/>
<g>
	<path style="fill:#6B3713;" d="M218.041,0c-7.097,24.011-15.59,47.59-25.423,70.621h36.899L264.828,0H218.041z"/>
	<path style="fill:#6B3713;" d="M185.379,86.925c-12.977,28.151-28.257,55.172-45.692,80.799
		c-17.002,26.006-37.244,49.735-60.239,70.621h150.069v-70.621h-44.138V86.925z"/>
</g>
<path style="fill:#FFD33F;" d="M176.552,512h158.897C432.958,512,512,432.958,512,335.448V35.31C512,15.81,496.19,0,476.69,0l0,0
	c-19.5,0-35.31,15.81-35.31,35.31l0,0c0-19.5-15.81-35.31-35.31-35.31l0,0c-19.5,0-35.31,15.81-35.31,35.31l0,0
	c0-19.5-15.81-35.31-35.31-35.31l0,0c-19.5,0-35.31,15.81-35.31,35.31l0,0c0-19.5-15.81-35.31-35.31-35.31l0,0
	c-19.5,0-35.31,15.81-35.31,35.31v176.552c0,43.882-35.566,79.448-79.448,79.448l0,0c-43.882,0-79.448-35.566-79.448-79.448V35.31
	C70.621,15.81,54.811,0,35.31,0l0,0C15.81,0,0,15.81,0,35.31v300.138C0,432.958,79.042,512,176.552,512z"/>
<path style="fill:#FFAC3E;" d="M75.847,480.362c29.528,20.621,64.689,31.665,100.705,31.638h158.897
	C432.958,512,512,432.958,512,335.448v-134.93C431.537,453.491,188.31,481.545,75.847,480.362z"/>
<path style="fill:#FFFFFF;" d="M221.131,353.103c-0.256,2.904-0.441,5.826-0.441,8.828c0,53.628,43.476,97.103,97.103,97.103
	c2.975,0,5.897-0.185,8.828-0.441C326.382,400.437,279.287,353.342,221.131,353.103z"/>
<path style="fill:#EA3836;" d="M308.966,265.269c-46.627,4.273-83.562,41.207-87.834,87.835c3.54,0,7.071,0.194,10.593,0.574
	c53.769,5.632,94.676,50.856,94.897,104.916c46.627-4.273,83.562-41.207,87.835-87.835
	C356.299,370.52,309.204,323.425,308.966,265.269z"/>
<path style="fill:#FFFFFF;" d="M317.793,264.828c-2.975,0-5.897,0.185-8.828,0.441c0.238,58.156,47.333,105.251,105.49,105.49
	c0.256-2.904,0.441-5.826,0.441-8.828C414.897,308.303,371.421,264.828,317.793,264.828z"/>
<g>
	<path style="fill:#383856;" d="M282.483,406.069c-4.873,0-8.828-3.955-8.828-8.828c0-2.339,0.927-4.582,2.586-6.241l17.655-17.655
		c3.505-3.39,9.092-3.293,12.482,0.212c3.302,3.425,3.302,8.845,0,12.27l-17.655,17.655
		C287.073,405.142,284.822,406.069,282.483,406.069z"/>
	<path style="fill:#383856;" d="M308.966,432.552c-4.873,0-8.828-3.955-8.828-8.828c0-2.339,0.927-4.582,2.586-6.241l17.655-17.655
		c3.505-3.39,9.092-3.293,12.482,0.212c3.302,3.425,3.302,8.845,0,12.27l-17.655,17.655
		C313.556,431.625,311.305,432.552,308.966,432.552z"/>
	<path style="fill:#383856;" d="M256,379.586c-4.873,0-8.828-3.955-8.828-8.828c0-2.339,0.927-4.582,2.586-6.241l17.655-17.655
		c3.505-3.39,9.092-3.293,12.482,0.212c3.301,3.425,3.301,8.845,0,12.27L262.241,377C260.59,378.659,258.339,379.586,256,379.586z"
		/>
	<path style="fill:#383856;" d="M308.966,326.621c-4.873,0-8.828-3.955-8.828-8.828c0-2.339,0.927-4.582,2.586-6.241l17.655-17.655
		c3.505-3.39,9.092-3.293,12.482,0.212c3.302,3.425,3.302,8.845,0,12.27l-17.655,17.655
		C313.556,325.694,311.305,326.621,308.966,326.621z"/>
	<path style="fill:#383856;" d="M335.448,353.103c-4.873,0-8.828-3.955-8.828-8.828c0-2.339,0.927-4.582,2.586-6.241l17.655-17.655
		c3.505-3.39,9.092-3.293,12.482,0.212c3.302,3.425,3.302,8.845,0,12.27l-17.655,17.655
		C340.039,352.177,337.788,353.103,335.448,353.103z"/>
	<path style="fill:#383856;" d="M361.931,379.586c-4.873,0-8.828-3.955-8.828-8.828c0-2.339,0.927-4.582,2.586-6.241l17.655-17.655
		c3.505-3.39,9.092-3.293,12.482,0.212c3.302,3.425,3.302,8.845,0,12.27L368.172,377
		C366.521,378.659,364.27,379.586,361.931,379.586z"/>
</g>
<path style="fill:#D62121;" d="M324.502,438.175c1.368,6.718,2.074,13.559,2.119,20.418c46.627-4.273,83.562-41.207,87.835-87.835
	c-6.859-0.035-13.7-0.733-20.418-2.092C385.165,402.723,358.568,429.321,324.502,438.175z"/>
<g>
	<path style="fill:#DDDDDD;" d="M300.138,441.379c-21.433,0.009-42.258-7.115-59.198-20.25
		c18.335,23.896,46.733,37.906,76.853,37.906c2.975,0,5.897-0.185,8.828-0.441c-0.035-6.859-0.733-13.7-2.092-20.418
		C316.566,440.276,308.374,441.353,300.138,441.379z"/>
	<path style="fill:#DDDDDD;" d="M376.991,285.078c18.423,23.658,24.726,54.572,17.046,83.562c6.718,1.368,13.559,2.074,20.418,2.119
		c0.256-2.904,0.441-5.826,0.441-8.828C414.897,331.811,400.887,303.413,376.991,285.078z"/>
</g>
<g>
	<path style="fill:#383856;" d="M300.138,220.69c-4.873,0-8.828-3.955-8.828-8.828V44.138c0-4.873,3.955-8.828,8.828-8.828
		c4.873,0,8.828,3.955,8.828,8.828v167.724C308.966,216.735,305.011,220.69,300.138,220.69z"/>
	<path style="fill:#383856;" d="M370.759,220.69c-4.873,0-8.828-3.955-8.828-8.828V44.138c0-4.873,3.955-8.828,8.828-8.828
		s8.828,3.955,8.828,8.828v167.724C379.586,216.735,375.631,220.69,370.759,220.69z"/>
	<path style="fill:#383856;" d="M441.379,220.69c-4.873,0-8.828-3.955-8.828-8.828V44.138c0-4.873,3.955-8.828,8.828-8.828
		s8.828,3.955,8.828,8.828v167.724C450.207,216.735,446.252,220.69,441.379,220.69z"/>
</g>
<g>
</g>
<g>
</g>
<g>
</g>
<g>
</g>
<g>
</g>
<g>
</g>
<g>
</g>
<g>
</g>
<g>
</g>
<g>
</g>
<g>
</g>
<g>
</g>
<g>
</g>
<g>
</g>
<g>
</g>
</svg>
