<?xml version="1.0" encoding="iso-8859-1"?>
<!-- Generator: Adobe Illustrator 19.0.0, SVG Export Plug-In . SVG Version: 6.00 Build 0)  -->
<svg version="1.1" id="Capa_1" xmlns="http://www.w3.org/2000/svg" xmlns:xlink="http://www.w3.org/1999/xlink" x="0px" y="0px"
	 viewBox="0 0 512 512" style="enable-background:new 0 0 512 512;" xml:space="preserve">
<path style="fill:#FFD33F;" d="M25.6,503.467l23.364-288.12c1.425-17.698,9.685-34.15,23.04-45.858L211.046,47.872
	c25.737-22.519,64.171-22.519,89.907,0l138.999,121.617c13.355,11.708,21.615,28.16,23.04,45.858l23.407,288.12"/>
<path style="fill:#EA3836;" d="M85.333,469.333l44.015-198.05c4.719-21.231,14.694-40.926,29.013-57.293l0,0
	c47.198-53.931,129.169-59.392,183.1-12.194c4.326,3.789,8.405,7.868,12.194,12.194l0,0c14.319,16.367,24.294,36.062,29.013,57.293
	l43.998,198.05H85.333z"/>
<polygon style="fill:#383856;" points="341.333,469.333 256,469.333 256,324.267 "/>
<path style="fill:#6B3713;" d="M341.333,469.333L341.333,469.333l-3.345-6.699c-13.858-27.716-12.595-60.595,3.345-87.168l0,0
	c-31.659,0-60.894-16.964-76.604-44.45L256,315.733l3.038,18.227C268.041,387.985,297.515,436.471,341.333,469.333z"/>
<path style="fill:#874D1B;" d="M503.467,512H8.533C3.823,512,0,508.177,0,503.467c0-4.71,3.823-8.533,8.533-8.533h494.933
	c4.71,0,8.533,3.823,8.533,8.533C512,508.177,508.177,512,503.467,512z"/>
<path style="fill:#FFAC3E;" d="M396.8,335.095l29.867,134.238H129.254C95.445,479.778,61.073,488.286,26.3,494.814l-0.7,8.653h460.8
	l-19.533-240.922C446.541,289.476,423.014,313.839,396.8,335.095z"/>
<g>
	<path style="fill:#D62121;" d="M341.333,375.467c-15.94,26.573-17.203,59.452-3.345,87.168l3.345,6.699h85.333L396.8,335.095
		c-17.792,14.592-36.463,28.075-55.91,40.371C341.043,375.467,341.188,375.467,341.333,375.467z"/>
	<path style="fill:#D62121;" d="M129.254,469.333h118.212v-44.015C209.033,442.479,169.549,457.182,129.254,469.333z"/>
	<path style="fill:#D62121;" d="M256,421.436c-2.842,1.314-5.692,2.611-8.533,3.883v44.015h17.067v-51.9
		C261.692,418.79,258.842,420.122,256,421.436z"/>
	<path style="fill:#D62121;" d="M247.467,170.121v299.213h17.067V170.121C258.85,169.754,253.15,169.754,247.467,170.121z"/>
</g>
<g>
	<path style="fill:#FFD33F;" d="M85.333,85.333c-14.14,0-25.6-11.46-25.6-25.6c0-4.71-3.823-8.533-8.533-8.533
		s-8.533,3.823-8.533,8.533c0,14.14-11.46,25.6-25.6,25.6c-4.71,0-8.533,3.823-8.533,8.533c0,4.71,3.823,8.533,8.533,8.533
		c14.14,0,25.6,11.46,25.6,25.6c0,4.71,3.823,8.533,8.533,8.533s8.533-3.823,8.533-8.533c0-14.14,11.46-25.6,25.6-25.6
		c4.71,0,8.533-3.823,8.533-8.533C93.867,89.156,90.044,85.333,85.333,85.333z"/>
	<path style="fill:#FFD33F;" d="M503.467,34.133c-14.14,0-25.6-11.46-25.6-25.6c0-4.71-3.823-8.533-8.533-8.533
		c-4.71,0-8.533,3.823-8.533,8.533c0,14.14-11.46,25.6-25.6,25.6c-4.71,0-8.533,3.823-8.533,8.533S430.49,51.2,435.2,51.2
		c14.14,0,25.6,11.46,25.6,25.6c0,4.71,3.823,8.533,8.533,8.533c4.71,0,8.533-3.823,8.533-8.533c0-14.14,11.46-25.6,25.6-25.6
		c4.71,0,8.533-3.823,8.533-8.533S508.177,34.133,503.467,34.133z"/>
</g>
<g>
</g>
<g>
</g>
<g>
</g>
<g>
</g>
<g>
</g>
<g>
</g>
<g>
</g>
<g>
</g>
<g>
</g>
<g>
</g>
<g>
</g>
<g>
</g>
<g>
</g>
<g>
</g>
<g>
</g>
</svg>
