<?xml version="1.0" encoding="iso-8859-1"?>
<!-- Generator: Adobe Illustrator 19.0.0, SVG Export Plug-In . SVG Version: 6.00 Build 0)  -->
<svg version="1.1" id="Capa_1" xmlns="http://www.w3.org/2000/svg" xmlns:xlink="http://www.w3.org/1999/xlink" x="0px" y="0px"
	 viewBox="0 0 512 512" style="enable-background:new 0 0 512 512;" xml:space="preserve">
<circle style="fill:#383856;" cx="255.974" cy="176.552" r="176.552"/>
<g>
	<path style="fill:#EA3836;" d="M194.181,97.103L194.181,97.103c14.627,0,26.483,11.855,26.483,26.483v114.759
		c0,14.627-11.855,26.483-26.483,26.483l0,0c-14.627,0-26.483-11.855-26.483-26.483V123.586
		C167.698,108.959,179.554,97.103,194.181,97.103z"/>
	<path style="fill:#EA3836;" d="M282.457,397.241v97.103c0,9.754-7.901,17.655-17.655,17.655h-17.655
		c-9.754,0-17.655-7.901-17.655-17.655v-97.103H282.457z"/>
</g>
<path style="fill:#FFD33F;" d="M255.974,353.103c-8.872-0.071-17.726-0.803-26.483-2.198v46.336h52.966v-46.336
	C273.7,352.3,264.846,353.033,255.974,353.103z"/>
<path style="fill:#202033;" d="M317.017,11.061c81.743,52.974,105.066,162.189,52.092,243.933
	c-44.95,69.358-132.025,98.198-209.487,69.394c81.585,53.292,190.923,30.349,244.215-51.235s30.349-190.923-51.235-244.215
	C341.452,21.654,329.517,15.66,317.017,11.061z"/>
<g>
	<path style="fill:#FFFFFF;" d="M187.56,61.793c-4.873,0.018-8.836-3.928-8.854-8.801c-0.009-3.222,1.739-6.188,4.555-7.751
		c11.087-6.144,22.916-10.858,35.196-14.027c4.749-1.112,9.498,1.827,10.611,6.577c1.086,4.599-1.651,9.234-6.197,10.514
		c-10.831,2.781-21.257,6.938-31.038,12.359C190.527,61.396,189.061,61.784,187.56,61.793z"/>
	<path style="fill:#FFFFFF;" d="M264.802,44.412h-0.556c-2.728-0.185-5.491-0.274-8.271-0.274c-4.873,0-8.828-3.955-8.828-8.828
		s3.955-8.828,8.828-8.828c3.151,0,6.276,0.097,9.375,0.291c4.873,0.15,8.704,4.22,8.563,9.101c-0.15,4.873-4.22,8.704-9.101,8.554
		L264.802,44.412z"/>
	<path style="fill:#FFFFFF;" d="M255.974,326.621c-4.873,0-8.828-3.955-8.828-8.828c0-4.873,3.955-8.828,8.828-8.828
		c14.054,0.018,28.028-2.207,41.384-6.594c4.652-1.465,9.604,1.121,11.07,5.773c1.439,4.573-1.033,9.454-5.561,10.999
		C287.736,324.114,271.908,326.638,255.974,326.621z"/>
	<path style="fill:#FFFFFF;" d="M305.409,88.276c0,22.069,7.062,22.069,7.062,44.138s-7.062,22.069-7.062,44.138
		s7.062,22.069,7.062,44.138s-7.062,22.069-7.062,44.138h-35.31c0-22.069,7.062-22.069,7.062-44.138s-7.062-22.069-7.062-44.138
		s7.062-22.069,7.062-44.138s-7.062-22.069-7.062-44.138H305.409z"/>
</g>
<path style="fill:#EA3836;" d="M305.409,264.828c0-22.069,7.062-22.069,7.062-44.138s-7.062-22.069-7.062-44.138
	s7.062-22.069,7.062-44.138s-7.062-22.069-7.062-44.138h35.31c0,22.069,7.062,22.069,7.062,44.138s-7.062,22.069-7.062,44.138
	s7.062,22.069,7.062,44.138s-7.062,22.069-7.062,44.138H305.409z"/>
<path style="fill:#D62121;" d="M229.491,487.221v7.124c0,9.754,7.901,17.655,17.655,17.655h17.655
	c9.754,0,17.655-7.901,17.655-17.655v-97.103h-11.414C261.871,429.18,247.862,459.529,229.491,487.221z"/>
<path style="fill:#FFAC3E;" d="M271.043,397.241h11.414v-46.301C279.482,366.566,275.669,382.023,271.043,397.241z"/>
<path style="fill:#D62121;" d="M196.317,97.315c4.29,4.802,6.674,11.008,6.691,17.443v114.759c0,14.627-11.855,26.483-26.483,26.483
	l0,0c-0.733,0-1.412-0.159-2.136-0.212c9.578,10.982,26.244,12.129,37.226,2.551c5.773-5.032,9.075-12.332,9.048-19.994V123.586
	C220.637,109.824,210.044,98.383,196.317,97.315z"/>
<g>
	
		<rect x="169.22" y="141.238" transform="matrix(-0.7071 0.7071 -0.7071 -0.7071 437.6126 118.8651)" style="fill:#FFFFFF;" width="49.937" height="17.655"/>
	
		<rect x="169.217" y="203.028" transform="matrix(-0.7071 0.7071 -0.7071 -0.7071 481.3005 224.3499)" style="fill:#FFFFFF;" width="49.937" height="17.655"/>
</g>
<g>
</g>
<g>
</g>
<g>
</g>
<g>
</g>
<g>
</g>
<g>
</g>
<g>
</g>
<g>
</g>
<g>
</g>
<g>
</g>
<g>
</g>
<g>
</g>
<g>
</g>
<g>
</g>
<g>
</g>
</svg>
