<?xml version="1.0" encoding="iso-8859-1"?>
<!-- Generator: Adobe Illustrator 19.0.0, SVG Export Plug-In . SVG Version: 6.00 Build 0)  -->
<svg version="1.1" id="Capa_1" xmlns="http://www.w3.org/2000/svg" xmlns:xlink="http://www.w3.org/1999/xlink" x="0px" y="0px"
	 viewBox="0 0 512 512" style="enable-background:new 0 0 512 512;" xml:space="preserve">
<rect y="384" style="fill:#91CECE;" width="97.103" height="35.31"/>
<path style="fill:#FFD33F;" d="M203.034,331.034h105.931c29.255,0,52.966,23.711,52.966,52.966v35.31
	c0,29.255-23.711,52.966-52.966,52.966H203.034c-29.255,0-52.966-23.711-52.966-52.966V384
	C150.069,354.745,173.78,331.034,203.034,331.034z"/>
<path style="fill:#EA3836;" d="M203.034,366.345h105.931c9.754,0,17.655,7.901,17.655,17.655v35.31
	c0,9.754-7.901,17.655-17.655,17.655H203.034c-9.754,0-17.655-7.901-17.655-17.655V384
	C185.379,374.246,193.28,366.345,203.034,366.345z"/>
<path style="fill:#FFD33F;" d="M79.448,39.724h353.103c19.5,0,35.31,15.81,35.31,35.31v87.27c0,35.814-26.801,65.951-62.367,70.135
	l-29.828,3.531c-33.607,3.937-65.28-16.499-75.529-48.746l-10.487-32.918c-5.906-18.582-25.768-28.857-44.35-22.952
	c-10.92,3.469-19.482,12.032-22.952,22.952l-10.487,32.918c-10.258,32.247-41.94,52.683-75.546,48.728l-29.828-3.531
	c-35.549-4.193-62.34-34.322-62.349-70.118v-87.27C44.138,55.534,59.948,39.724,79.448,39.724z"/>
<path style="fill:#EA3836;" d="M300.138,187.224l-10.487-32.918c-5.906-18.582-25.768-28.857-44.35-22.952
	c-10.92,3.469-19.482,12.032-22.952,22.952l-10.487,32.918c-4.811,15.086-14.557,28.125-27.683,36.988l50.635,37.967
	c12.553,9.419,29.82,9.419,42.372,0l50.617-37.959C314.686,215.349,304.94,202.319,300.138,187.224z"/>
<g>
	<rect y="92.69" style="fill:#91CECE;" width="44.138" height="61.793"/>
	<rect x="467.862" y="92.69" style="fill:#91CECE;" width="44.138" height="61.793"/>
</g>
<rect x="97.103" y="375.172" style="fill:#383856;" width="61.793" height="52.966"/>
<rect x="353.103" y="375.172" style="fill:#202033;" width="44.138" height="52.966"/>
<path style="fill:#D62121;" d="M327.804,224.221c-13.118-8.872-22.863-21.901-27.666-36.996l-10.487-32.918
	c-3.964-13.153-15.369-22.696-29.016-24.276c-2.648,42.319-3.107,103.027,11.882,135.062c1.633-0.847,3.187-1.827,4.67-2.913
	L327.804,224.221z"/>
<path style="fill:#FFAC3E;" d="M360.077,370.3c-10.417,8.872-21.61,16.79-33.457,23.64v25.37c0,9.754-7.901,17.655-17.655,17.655
	h-91.445c-19.756,5.297-39.3,9.534-57.662,12.959c9.913,14.018,26.006,22.351,43.176,22.351h105.931
	c29.255,0,52.966-23.711,52.966-52.966V384C361.913,379.374,361.295,374.766,360.077,370.3z"/>
<path style="fill:#D62121;" d="M308.966,436.966c9.754,0,17.655-7.901,17.655-17.655v-25.37
	c-34.322,19.059-71.009,33.527-109.1,43.026H308.966z"/>
<g>
	<path style="fill:#83B2B7;" d="M97.103,384c-5.508,13.241-13.612,25.247-23.834,35.31h23.834V384z"/>
	<path style="fill:#83B2B7;" d="M44.138,92.69c0,0-10.787,42.911-28.098,61.793h28.098V92.69z"/>
	<path style="fill:#83B2B7;" d="M467.862,92.69v61.793H512v-26.05C496.225,117.892,481.457,105.922,467.862,92.69z"/>
</g>
<path style="fill:#FFAC3E;" d="M460.42,53.583c-6.621-8.713-16.931-13.833-27.869-13.859H79.448c-19.5,0-35.31,15.81-35.31,35.31
	v87.27c0.009,10.116,2.198,20.109,6.426,29.299C81.585,135.609,175.669,53.725,460.42,53.583z"/>
<g>
</g>
<g>
</g>
<g>
</g>
<g>
</g>
<g>
</g>
<g>
</g>
<g>
</g>
<g>
</g>
<g>
</g>
<g>
</g>
<g>
</g>
<g>
</g>
<g>
</g>
<g>
</g>
<g>
</g>
</svg>
