<?xml version="1.0" encoding="iso-8859-1"?>
<!-- Generator: Adobe Illustrator 19.0.0, SVG Export Plug-In . SVG Version: 6.00 Build 0)  -->
<svg version="1.1" id="Capa_1" xmlns="http://www.w3.org/2000/svg" xmlns:xlink="http://www.w3.org/1999/xlink" x="0px" y="0px"
	 viewBox="0 0 512 512" style="enable-background:new 0 0 512 512;" xml:space="preserve">
<polygon style="fill:#383856;" points="207.448,167.724 260.414,167.724 304.552,167.724 339.862,229.517 339.862,379.586 
	207.448,379.586 "/>
<path style="fill:#202033;" d="M248.002,167.724h-40.554v211.862h132.414v-56.549C287.135,274.132,258.807,200.995,248.002,167.724z
	"/>
<g>
	<path style="fill:#FFD33F;" d="M150.069,167.724h52.966c12.191,0,22.069,9.878,22.069,22.069l0,0
		c0,12.191-9.878,22.069-22.069,22.069h-52.966c-12.191,0-22.069-9.878-22.069-22.069l0,0
		C128,177.602,137.878,167.724,150.069,167.724z"/>
	<path style="fill:#FFD33F;" d="M150.069,211.862h52.966c12.191,0,22.069,9.878,22.069,22.069l0,0
		c0,12.191-9.878,22.069-22.069,22.069h-52.966C137.878,256,128,246.122,128,233.931l0,0
		C128,221.74,137.878,211.862,150.069,211.862z"/>
	<path style="fill:#FFD33F;" d="M150.069,256h52.966c12.191,0,22.069,9.878,22.069,22.069l0,0c0,12.191-9.878,22.069-22.069,22.069
		h-52.966c-12.191,0-22.069-9.878-22.069-22.069l0,0C128,265.878,137.878,256,150.069,256z"/>
	<path style="fill:#FFD33F;" d="M150.069,300.138h52.966c12.191,0,22.069,9.878,22.069,22.069l0,0
		c0,12.191-9.878,22.069-22.069,22.069h-52.966c-12.191,0-22.069-9.878-22.069-22.069l0,0
		C128,310.016,137.878,300.138,150.069,300.138z"/>
	<path style="fill:#FFD33F;" d="M282.483,132.414L282.483,132.414c12.191,0,22.069,9.878,22.069,22.069v35.31
		c0,12.191-9.878,22.069-22.069,22.069l0,0c-12.191,0-22.069-9.878-22.069-22.069v-35.31
		C260.414,142.292,270.292,132.414,282.483,132.414z"/>
</g>
<g>
	<path style="fill:#EA3836;" d="M154.483,167.724V97.103l0,0c-19.5,0-35.31-15.81-35.31-35.31V35.31c0-19.5,15.81-35.31,35.31-35.31
		h8.828v35.31c0,9.754,7.901,17.655,17.655,17.655l0,0c9.754,0,17.655-7.901,17.655-17.655V0h8.828c19.5,0,35.31,15.81,35.31,35.31
		v26.483c0,19.5-15.81,35.31-35.31,35.31l0,0v70.621"/>
	<path style="fill:#EA3836;" d="M207.448,344.276v70.621l0,0c19.5,0,35.31,15.81,35.31,35.31v26.483c0,19.5-15.81,35.31-35.31,35.31
		h-8.828v-35.31c0-9.754-7.901-17.655-17.655-17.655l0,0c-9.754,0-17.655,7.901-17.655,17.655V512h-8.828
		c-19.5,0-35.31-15.81-35.31-35.31v-26.483c0-19.5,15.81-35.31,35.31-35.31l0,0v-70.621"/>
</g>
<rect x="339.862" y="229.517" style="fill:#FFD33F;" width="52.966" height="150.069"/>
<g>
	<path style="fill:#FFAC3E;" d="M218.041,173.7c-22.369,29.422-61.422,36.617-70.462,37.959c0.83,0.115,1.66,0.177,2.489,0.203
		h52.966c12.156,0.018,22.034-9.816,22.051-21.981C225.103,183.746,222.543,177.876,218.041,173.7z"/>
	<path style="fill:#FFAC3E;" d="M218.041,217.838c-22.369,29.422-61.422,36.617-70.462,37.959c0.83,0.115,1.66,0.177,2.489,0.203
		h52.966c12.156,0.018,22.034-9.816,22.051-21.981C225.103,227.884,222.543,222.014,218.041,217.838z"/>
	<path style="fill:#FFAC3E;" d="M218.041,261.976c-22.369,29.422-61.422,36.617-70.462,37.959c0.83,0.115,1.66,0.177,2.489,0.203
		h52.966c12.156,0.018,22.034-9.816,22.051-21.981C225.103,272.022,222.543,266.152,218.041,261.976z"/>
	<path style="fill:#FFAC3E;" d="M218.041,306.114c-22.369,29.422-61.422,36.617-70.462,37.959c0.83,0.115,1.66,0.177,2.489,0.203
		h52.966c12.156,0.018,22.034-9.816,22.051-21.981C225.103,316.16,222.543,310.29,218.041,306.114z"/>
	<path style="fill:#FFAC3E;" d="M265.834,204.138c7.883,9.242,21.76,10.337,31.002,2.454c4.917-4.193,7.742-10.337,7.715-16.799
		V159.55C295.353,177.267,282.086,192.547,265.834,204.138z"/>
</g>
<path style="fill:#D62121;" d="M242.759,450.207c0-19.5-15.81-35.31-35.31-35.31v-70.621h-52.966v5.588
	c15.96,20.445,70.691,92.884,84.86,141.745c2.225-4.661,3.399-9.754,3.416-14.919L242.759,450.207L242.759,450.207z"/>
<path style="fill:#FFAC3E;" d="M339.862,323.037v56.549h52.966v-21.38C373.283,349.608,355.372,337.708,339.862,323.037z"/>
<g>
</g>
<g>
</g>
<g>
</g>
<g>
</g>
<g>
</g>
<g>
</g>
<g>
</g>
<g>
</g>
<g>
</g>
<g>
</g>
<g>
</g>
<g>
</g>
<g>
</g>
<g>
</g>
<g>
</g>
</svg>
