<?xml version="1.0" encoding="iso-8859-1"?>
<!-- Generator: Adobe Illustrator 19.0.0, SVG Export Plug-In . SVG Version: 6.00 Build 0)  -->
<svg version="1.1" id="Capa_1" xmlns="http://www.w3.org/2000/svg" xmlns:xlink="http://www.w3.org/1999/xlink" x="0px" y="0px"
	 viewBox="0 0 512 512" style="enable-background:new 0 0 512 512;" xml:space="preserve">
<g>
	<circle style="fill:#91CECE;" cx="157.867" cy="196.267" r="25.6"/>
	<circle style="fill:#91CECE;" cx="98.133" cy="110.933" r="34.133"/>
	<circle style="fill:#91CECE;" cx="209.067" cy="51.2" r="42.667"/>
</g>
<path style="fill:#FFD33F;" d="M234.667,247.467l-2.705-4.514c-48.606,9.899-92.621,35.465-125.295,72.781
	c-15.172,20.224-15.172,48.043,0,68.267c33.69,38.485,79.403,64.444,129.707,73.668l1.843-3.413
	C273.126,389.41,271.778,311.074,234.667,247.467z"/>
<path style="fill:#EA3836;" d="M306.5,454.494c46.473-11.273,88.96-35.098,122.812-68.873l1.621-1.621l1.954,3.26
	c15.343,25.566,38.63,45.397,66.313,56.474c-11.341-28.365-19.601-57.865-24.619-87.996c-0.649-3.891-0.649-7.851,0-11.742
	c5.018-30.131,13.278-59.631,24.619-87.996c-27.682,11.068-50.978,30.908-66.313,56.474l-1.954,3.26l-1.621-1.621
	c-43.059-43.059-99.866-69.666-160.512-75.179h-8.533l-3.533,0.324c-8.311,0.777-16.572,2.005-24.747,3.695l2.679,4.514
	c37.103,63.607,38.443,141.944,3.533,206.78l-1.843,3.413c6.724,1.229,13.517,2.185,20.378,2.807l3.533,0.333h8.533
	C281.506,459.631,294.11,457.523,306.5,454.494z"/>
<path style="fill:#FFAC3E;" d="M247.467,434.517c-19.575,4.796-37.649,8.354-53.129,10.965c13.585,5.41,27.665,9.489,42.035,12.186
	l1.843-3.413C241.638,447.838,244.719,441.25,247.467,434.517z"/>
<path style="fill:#D62121;" d="M474.581,343.996c2.415-14.379,5.564-28.612,9.438-42.667
	c-59.059,76.1-159.548,114.321-236.553,133.188c-2.739,6.733-5.811,13.312-9.225,19.729l-1.843,3.413
	c6.724,1.229,13.517,2.185,20.378,2.807l3.49,0.333h8.533c60.629-5.589,117.402-32.179,160.512-75.179l1.621-1.621l1.954,3.26
	c15.343,25.566,38.63,45.397,66.313,56.474c-11.341-28.365-19.601-57.865-24.619-87.996
	C473.933,351.846,473.933,347.887,474.581,343.996z"/>
<circle style="fill:#FFFFFF;" cx="174.933" cy="332.8" r="25.6"/>
<path style="fill:#FFAC3E;" d="M309.376,456.286c38.972,24.363,87.057,29.184,130.091,13.047l-14.097-5.641
	c-18.611-7.441-34.526-20.352-45.636-37.026l-0.853-1.766c-22.485,13.449-46.882,23.424-72.346,29.594L309.376,456.286z"/>
<g>
	<path style="fill:#383856;" d="M55.467,512c-23.552-0.026-42.641-19.115-42.667-42.667V8.533C12.8,3.823,16.623,0,21.333,0
		s8.533,3.823,8.533,8.533v460.8c0,14.14,11.46,25.6,25.6,25.6s25.6-11.46,25.6-25.6v-18.185l-12.331,8.218
		c-3.925,2.62-9.216,1.553-11.836-2.364c-2.62-3.925-1.553-9.216,2.364-11.836l0,0l38.869-25.916v50.082
		C98.108,492.885,79.019,511.974,55.467,512z"/>
	<circle style="fill:#383856;" cx="174.933" cy="332.8" r="8.533"/>
</g>
<g>
	<path style="fill:#83B2B7;" d="M234.564,17.169c14.182,18.697,10.522,45.346-8.166,59.529c-15.181,11.52-36.181,11.52-51.362,0
		c14.02,18.859,40.67,22.784,59.529,8.772s22.784-40.67,8.772-59.529C240.853,22.605,237.901,19.644,234.564,17.169z"/>
	<path style="fill:#83B2B7;" d="M117.598,82.935c10.778,15.428,7.006,36.676-8.422,47.454c-11.725,8.192-27.315,8.192-39.04,0
		c10.667,15.539,31.915,19.499,47.454,8.832s19.499-31.915,8.832-47.454C124.049,88.303,121.054,85.308,117.598,82.935z"/>
	<path style="fill:#83B2B7;" d="M171.127,174.473c2.475,3.985,3.789,8.576,3.806,13.261c0,14.14-11.46,25.6-25.6,25.6
		c-4.685-0.017-9.276-1.331-13.261-3.806c7.287,12.066,22.989,15.94,35.055,8.653c12.066-7.287,15.94-22.989,8.653-35.055
		C177.638,179.584,174.669,176.614,171.127,174.473z"/>
</g>
<g>
</g>
<g>
</g>
<g>
</g>
<g>
</g>
<g>
</g>
<g>
</g>
<g>
</g>
<g>
</g>
<g>
</g>
<g>
</g>
<g>
</g>
<g>
</g>
<g>
</g>
<g>
</g>
<g>
</g>
</svg>
