<?xml version="1.0" encoding="iso-8859-1"?>
<!-- Generator: Adobe Illustrator 19.0.0, SVG Export Plug-In . SVG Version: 6.00 Build 0)  -->
<svg version="1.1" id="Capa_1" xmlns="http://www.w3.org/2000/svg" xmlns:xlink="http://www.w3.org/1999/xlink" x="0px" y="0px"
	 viewBox="0 0 512 512" style="enable-background:new 0 0 512 512;" xml:space="preserve">
<g>
	<path style="fill:#FFD33F;" d="M177.214,256h8.166c19.5,0,35.31-15.81,35.31-35.31V42.62c0-15.987-6.347-31.32-17.655-42.62l0,0
		c-11.308,11.299-17.655,26.633-17.655,42.62v98.622c0,9.754-7.901,17.655-17.655,17.655l0,0c-9.754,0-17.655-7.901-17.655-17.655
		V42.62c0-15.987-6.347-31.32-17.655-42.62l0,0c-11.308,11.299-17.655,26.633-17.655,42.62v98.622
		c0,9.754-7.901,17.655-17.655,17.655l0,0c-9.754,0-17.655-7.901-17.655-17.655V42.62c0-15.987-6.347-31.32-17.655-42.62l0,0
		C50.485,11.299,44.138,26.633,44.138,42.62v178.07c0,19.5,15.81,35.31,35.31,35.31h8.166c9.754-0.009,17.664,7.892,17.664,17.646
		c0,0.221,0,0.441-0.009,0.662l-7.574,204.65c-0.362,9.807,3.372,19.324,10.311,26.271l0,0c4.326,4.334,10.196,6.762,16.322,6.771
		H140.5c6.126,0,12.006-2.436,16.34-6.771l0,0c6.938-6.947,10.673-16.463,10.311-26.271l-7.574-204.65
		c-0.362-9.746,7.247-17.938,16.993-18.3C176.781,256,177.002,256,177.214,256z"/>
	<path style="fill:#FFD33F;" d="M467.862,256h-43.476c-9.754-0.009-17.664,7.892-17.664,17.646c0,0.221,0,0.441,0.009,0.662
		l7.574,204.65c0.362,9.807-3.372,19.324-10.311,26.271l0,0c-4.326,4.334-10.196,6.762-16.322,6.771H371.5
		c-6.126,0-12.006-2.436-16.34-6.771l0,0c-6.938-6.947-10.673-16.463-10.311-26.271l7.574-204.65
		c0.362-9.746-7.247-17.938-16.993-18.3C335.21,256,334.989,256,334.769,256H291.31V132.935c0-49.611,26.033-95.585,68.573-121.114
		L379.586,0l19.703,11.82c42.54,25.529,68.573,71.503,68.573,121.114V256z"/>
</g>
<g>
	<path style="fill:#FFAC3E;" d="M54.404,245.575c6.621,6.682,15.642,10.434,25.044,10.425h8.166
		c9.754-0.009,17.664,7.892,17.664,17.646c0,0.221,0,0.441-0.009,0.662l-7.574,204.65c-0.362,9.807,3.372,19.324,10.311,26.271
		c4.326,4.334,10.196,6.762,16.322,6.771H140.5c6.126,0,12.006-2.436,16.34-6.771c6.938-6.947,10.673-16.463,10.311-26.271
		l-7.574-204.65c-0.362-9.746,7.247-17.938,16.993-18.3C176.79,256,177.011,256,177.231,256h8.148c19.5,0,35.31-15.81,35.31-35.31
		V108.111C192.053,215.119,100.917,239.934,54.404,245.575z"/>
	<path style="fill:#FFAC3E;" d="M291.31,246.607V256h43.476c9.754-0.009,17.664,7.892,17.664,17.646c0,0.221,0,0.441-0.009,0.662
		l-7.574,204.65c-0.362,9.807,3.372,19.324,10.311,26.271c4.326,4.334,10.196,6.762,16.322,6.771h16.172
		c6.126,0,12.006-2.436,16.34-6.771c6.938-6.947,10.673-16.463,10.311-26.271l-7.574-204.65c-0.362-9.746,7.247-17.938,16.993-18.3
		c0.221-0.009,0.441-0.009,0.662-0.009h43.458V132.935c-0.009-6.7-0.503-13.383-1.465-20.012
		C433.867,224.132,332.473,243.447,291.31,246.607z"/>
</g>
<g>
</g>
<g>
</g>
<g>
</g>
<g>
</g>
<g>
</g>
<g>
</g>
<g>
</g>
<g>
</g>
<g>
</g>
<g>
</g>
<g>
</g>
<g>
</g>
<g>
</g>
<g>
</g>
<g>
</g>
</svg>
