<?xml version="1.0" encoding="iso-8859-1"?>
<!-- Generator: Adobe Illustrator 19.0.0, SVG Export Plug-In . SVG Version: 6.00 Build 0)  -->
<svg version="1.1" id="Capa_1" xmlns="http://www.w3.org/2000/svg" xmlns:xlink="http://www.w3.org/1999/xlink" x="0px" y="0px"
	 viewBox="0 0 512 512" style="enable-background:new 0 0 512 512;" xml:space="preserve">
<path style="fill:#91CECE;" d="M166.595,159.55h-26.305c-9.689,0-17.536-7.848-17.536-17.536l0,0
	c0-9.689,7.848-17.536,17.536-17.536h26.305"/>
<path style="fill:#FFD33F;" d="M245.509,421.131c22.911,12.53,48.62,19.062,74.731,19.001l0,0
	c105.911,0,191.769-85.867,191.76-191.777c0-12.144-1.157-24.27-3.446-36.195H333.068l0.07-127.139
	c0-45.98-37.265-83.271-83.245-83.298l0,0c-46.007,0-83.298,37.291-83.298,83.298v241.125L245.509,421.131z"/>
<path style="fill:#FFAC3E;" d="M254.277,80.636c0-14.529-11.776-26.305-26.305-26.305c-14.529,0-26.305,11.776-26.305,26.305
	s11.776,35.073,26.305,35.073C242.501,115.709,254.277,95.165,254.277,80.636z"/>
<path style="fill:#FFFFFF;" d="M236.741,142.014l-4.068,4.077c-8.628,8.61-13.468,20.307-13.468,32.504l0,0
	c0,4.647,1.85,9.11,5.138,12.398l0,0c6.848,6.848,17.948,6.848,24.796,0l0,0c3.288-3.288,5.138-7.751,5.138-12.398l0,0
	c0-12.197-4.84-23.884-13.468-32.504L236.741,142.014z"/>
<path style="fill:#EA3836;" d="M420.872,475.204v35.073h35.073c9.689,0,17.536-7.848,17.536-17.536l0,0
	c0-9.689-7.848-17.536-17.536-17.536H420.872z"/>
<path style="fill:#FFAC3E;" d="M210.436,396.291l35.073,24.84c22.911,12.53,48.62,19.062,74.731,19.001
	c105.911,0,191.769-85.867,191.76-191.777c0-12.144-1.157-24.27-3.446-36.195h-9.119c5.471,105.762-75.827,195.942-181.598,201.414
	c-3.288,0.167-6.585,0.254-9.873,0.254l0,0c-26.112,0.07-51.82-6.471-74.731-19.001L210.436,396.291z"/>
<path style="fill:#91CECE;" d="M280.582,367.803c12.46,7.207,26.603,10.987,41,10.951l0,0c51.645,0,93.513-41.859,93.521-93.504
	c0-6.892-0.763-13.757-2.271-20.482h-168.06l-3.157,14.082c-2.885,12.705-2.683,25.919,0.587,38.527L280.582,367.803z"/>
<circle style="fill:#FFFFFF;" cx="227.973" cy="80.636" r="26.305"/>
<g>
	<rect x="35.073" y="361.244" style="fill:#383856;" width="96.45" height="17.536"/>
	<rect y="361.244" style="fill:#383856;" width="17.536" height="17.536"/>
	<rect x="245.509" y="483.999" style="fill:#383856;" width="149.059" height="17.536"/>
	<rect x="192.9" y="483.999" style="fill:#383856;" width="35.073" height="17.536"/>
	<rect x="157.827" y="483.999" style="fill:#383856;" width="17.536" height="17.536"/>
	<circle style="fill:#383856;" cx="227.973" cy="80.636" r="8.768"/>
</g>
<path style="fill:#83B2B7;" d="M263.045,343.682l17.536,24.121c12.46,7.207,26.603,10.987,41,10.951l0,0
	c51.645,0,93.513-41.859,93.521-93.504c0-6.892-0.763-13.757-2.271-20.482h-9.496c1.648,51.592-38.834,94.749-90.426,96.406
	c-0.982,0.035-1.964,0.044-2.946,0.044l0,0c-14.397,0.035-28.549-3.744-41.009-10.951L263.045,343.682z"/>
<path style="fill:#EA3836;" d="M295.321,360.254c-17.633-11.258-28.304-30.724-28.304-51.645c0-0.798,0.088-1.578,0.123-2.367
	c-24.305,17.08-57.361,14.257-78.423-6.69c-8.672,17.484-23.516,31.127-41.658,38.317c20.333,16.388,25.515,45.226,12.153,67.664
	c2.446-0.316,4.91-0.473,7.383-0.473c23.516,0.009,44.946,13.468,55.178,34.634c9.443-16.019,26.646-25.857,45.244-25.866h0.228
	c-0.114-1.456-0.228-2.911-0.228-4.384C267.026,389.171,277.802,370.442,295.321,360.254z"/>
<g>
	<path style="fill:#D62121;" d="M295.321,360.254c-7.058-4.568-13.117-10.539-17.782-17.536
		c-24.674,45.928-82.184,53.81-114.39,54.363c-1.07,2.911-2.385,5.734-3.937,8.417c2.446-0.298,4.919-0.447,7.383-0.438
		c23.516,0.009,44.946,13.468,55.178,34.634c9.443-16.019,26.646-25.857,45.244-25.866h0.228c-0.114-1.456-0.228-2.911-0.228-4.384
		C267.026,389.171,277.802,370.442,295.321,360.254z"/>
	<path style="fill:#D62121;" d="M420.872,508.523v1.754h35.073c9.663,0.026,17.51-7.795,17.536-17.449
		c0.009-3.376-0.956-6.673-2.788-9.513C457.541,497.274,439.917,506.191,420.872,508.523z"/>
</g>
<path style="fill:#DDDDDD;" d="M240.809,146.091l-4.068-4.077l-0.465,0.465c5.945,7.883,9.18,17.475,9.233,27.348
	c0.009,9.663-7.821,17.501-17.475,17.51c-2.499,0-4.972-0.535-7.251-1.57c4.016,8.812,14.415,12.705,23.227,8.689
	c6.217-2.832,10.224-9.022,10.268-15.862C254.277,166.398,249.437,154.701,240.809,146.091z"/>
<path style="fill:#83B2B7;" d="M123.377,137.63c-0.395,1.429-0.605,2.902-0.623,4.384c0,9.689,7.848,17.536,17.536,17.536h26.305
	v-8.768h-26.305C132.321,150.747,125.367,145.346,123.377,137.63z"/>
<g>
</g>
<g>
</g>
<g>
</g>
<g>
</g>
<g>
</g>
<g>
</g>
<g>
</g>
<g>
</g>
<g>
</g>
<g>
</g>
<g>
</g>
<g>
</g>
<g>
</g>
<g>
</g>
<g>
</g>
</svg>
