<?xml version="1.0" encoding="iso-8859-1"?>
<!-- Generator: Adobe Illustrator 19.0.0, SVG Export Plug-In . SVG Version: 6.00 Build 0)  -->
<svg version="1.1" id="Capa_1" xmlns="http://www.w3.org/2000/svg" xmlns:xlink="http://www.w3.org/1999/xlink" x="0px" y="0px"
	 viewBox="0 0 512 512" style="enable-background:new 0 0 512 512;" xml:space="preserve">
<path style="fill:#383856;" d="M441.379,251.586c-39,0-70.621,31.62-70.621,70.621s31.62,70.621,70.621,70.621
	S512,361.207,512,322.207S480.38,251.586,441.379,251.586z M441.379,357.517c-19.5,0-35.31-15.81-35.31-35.31
	c0-19.5,15.81-35.31,35.31-35.31c19.5,0,35.31,15.81,35.31,35.31C476.69,341.707,460.879,357.517,441.379,357.517z"/>
<path style="fill:#202033;" d="M489.163,270.31c-28.619-26.43-73.251-24.664-99.681,3.955
	c-12.058,13.056-18.741,30.173-18.723,47.943c0,2.366,0.124,4.696,0.353,7C390.179,306.07,426.505,276.303,489.163,270.31z"/>
<path style="fill:#383856;" d="M70.621,251.586c-39,0-70.621,31.62-70.621,70.621s31.62,70.621,70.621,70.621
	s70.621-31.62,70.621-70.621S109.621,251.586,70.621,251.586z M70.621,357.517c-19.5,0-35.31-15.81-35.31-35.31
	c0-19.5,15.81-35.31,35.31-35.31s35.31,15.81,35.31,35.31C105.931,341.707,90.121,357.517,70.621,357.517z"/>
<polygon style="fill:#874D1B;" points="96.98,217.724 81.046,313.379 203.034,313.379 203.034,331.034 60.195,331.034 
	80.887,207.448 "/>
<path style="fill:#202033;" d="M137.922,300.8c-7.106-22.237-24.717-39.53-47.078-46.239l-3.531,21.301
	C105.234,281.847,122.253,290.242,137.922,300.8z"/>
<g>
	<path style="fill:#6B3713;" d="M203.034,313.379h-49.946c5.429,5.244,10.134,11.176,14.001,17.655h35.946V313.379z"/>
	<path style="fill:#6B3713;" d="M80.887,207.448l-7.415,44.279l-3.134,18.732c5.685,1.668,11.361,3.443,16.958,5.402l3.531-21.301
		l6.179-36.838L80.887,207.448z"/>
</g>
<path style="fill:#FFD33F;" d="M313.273,201.49c-18.767-12.5-43.105-12.932-62.305-1.103l-7.503,4.617l0,0l-4.484,2.754
	c-41.772,25.697-95.718,19.359-130.401-15.316l-13.983-13.983l-50.458-6.321L0,180.966l87.393,35.31l81.585,37.826
	c26.536,12.306,38.073,43.794,25.768,70.329c-0.538,1.165-1.121,2.313-1.748,3.443l-16.446,29.643H294.25
	c14.257,0,27.118-8.572,32.6-21.733l35.081-84.198l26.483-17.655l-27.683-9.225C343.949,219.11,327.989,211.306,313.273,201.49z"/>
<path style="fill:#EA3836;" d="M406.069,163.31l-8.66,8.66c-5.376,5.367-13.577,6.7-20.374,3.302l-41.587-20.789l-17.205-5.738
	c-6.073-2.022-12.579-2.357-18.829-0.971l-60.142,13.365c-6.056,1.351-10.955,5.773-12.915,11.652l-5.667,17.002l22.775,15.183
	l7.503-4.617c19.209-11.82,43.538-11.379,62.305,1.13c14.716,9.816,30.676,17.62,47.457,23.217l27.683,9.225l26.483-17.655h26.483
	l17.655-44.138L406.069,163.31z"/>
<path style="fill:#874D1B;" d="M432.772,324.167l-42.593-187.339h-28.248v-17.655h35.31c4.122,0,7.689,2.851,8.607,6.868
	l44.138,194.207L432.772,324.167z"/>
<path style="fill:#91CECE;" d="M238.98,207.731l4.484-2.754l-22.775-15.183l-5.976,1.192c-25.079,5.023-50.988,3.972-75.582-3.054
	l-24.373-6.965l-20.18-2.525l14.001,14.001C143.263,227.107,197.217,233.437,238.98,207.731z"/>
<path style="fill:#FFAC3E;" d="M191.417,330.761l-14.866,26.756H294.25c14.257,0,27.118-8.572,32.6-21.733l35.081-84.198
	l26.483-17.655l-23.578-7.857C312.594,269.444,254.137,304.737,191.417,330.761z"/>
<g>
	<path style="fill:#D62121;" d="M364.835,226.074l23.578,7.857l20.71-13.806l-6.638-29.237
		C390.321,203.476,377.671,215.199,364.835,226.074z"/>
	<path style="fill:#D62121;" d="M459.034,172.138l-34.489-5.747c-2.481,2.94-4.996,5.862-7.539,8.757l9.366,41.128h15.007
		L459.034,172.138z"/>
</g>
<g>
	<polygon style="fill:#6B3713;" points="409.123,220.125 432.772,324.167 449.986,320.247 426.355,216.276 414.897,216.276 	"/>
	<path style="fill:#6B3713;" d="M402.485,190.888l6.638,29.237l5.773-3.849h11.476l-9.348-41.128
		C412.266,180.542,407.42,185.794,402.485,190.888z"/>
</g>
<path style="fill:#FFAC3E;" d="M38.894,173.188L0,180.966l72.386,29.237C59.851,199.186,48.614,186.765,38.894,173.188z"/>
<path style="fill:#202033;" d="M73.472,251.727c-0.953,0-1.889-0.141-2.851-0.141c-12.756,0.009-25.265,3.487-36.193,10.072
	c11.661,2.348,23.834,5.297,35.928,8.828L73.472,251.727z"/>
<path style="fill:#83B2B7;" d="M108.579,192.441c24.038,24.02,58.156,35.028,91.701,29.608
	c-37.067-5.676-72.351-19.721-103.177-41.084L108.579,192.441z"/>
<g>
</g>
<g>
</g>
<g>
</g>
<g>
</g>
<g>
</g>
<g>
</g>
<g>
</g>
<g>
</g>
<g>
</g>
<g>
</g>
<g>
</g>
<g>
</g>
<g>
</g>
<g>
</g>
<g>
</g>
</svg>
