<?xml version="1.0" encoding="iso-8859-1"?>
<!-- Generator: Adobe Illustrator 19.0.0, SVG Export Plug-In . SVG Version: 6.00 Build 0)  -->
<svg version="1.1" id="Capa_1" xmlns="http://www.w3.org/2000/svg" xmlns:xlink="http://www.w3.org/1999/xlink" x="0px" y="0px"
	 viewBox="0 0 512 512" style="enable-background:new 0 0 512 512;" xml:space="preserve">
<polygon style="fill:#FFD33F;" points="88.276,39.724 141.241,331.034 194.207,269.241 "/>
<path style="fill:#FFAC3E;" d="M172.721,222.694c-5.835,37.305-16.419,73.719-31.479,108.341l52.966-61.793L172.721,222.694z"/>
<polygon style="fill:#FFD33F;" points="512,233.931 317.793,286.897 335.448,366.345 "/>
<path style="fill:#FFAC3E;" d="M317.793,313.379L317.793,313.379l17.655,52.966l49.134-36.855
	C361.931,339.862,321.686,325.941,317.793,313.379z"/>
<polyline style="fill:#FFD33F;" points="308.966,428.138 308.966,198.621 370.759,216.276 317.793,145.655 291.31,145.655 
	273.655,295.724 308.966,428.138 "/>
<polygon style="fill:#D62121;" points="308.966,428.138 344.276,410.483 308.966,198.621 "/>
<path style="fill:#FFAC3E;" d="M273.655,295.724l35.31,132.414V275.747C299.432,285.749,287.144,292.705,273.655,295.724z"/>
<g>
	<polyline style="fill:#EA3836;" points="308.966,428.138 220.69,401.655 308.966,375.172 308.966,428.138 	"/>
	<polygon style="fill:#EA3836;" points="308.966,375.172 141.241,331.034 238.345,216.276 	"/>
</g>
<polygon style="fill:#FFD33F;" points="141.241,331.034 0,472.276 308.966,375.172 "/>
<path style="fill:#FFAC3E;" d="M297.181,372.074l-155.939-41.039l-31.647,31.647C165.182,342.14,263.45,363.626,297.181,372.074z"/>
<g>
	<path style="fill:#D62121;" d="M141.241,331.034l167.724,44.138l-22.307-50.185C224.459,349.06,141.241,331.034,141.241,331.034z"
		/>
	<path style="fill:#D62121;" d="M220.69,401.655l67.708,20.303c10.734-13.586,17.814-29.696,20.568-46.786L220.69,401.655z"/>
</g>
<g>
</g>
<g>
</g>
<g>
</g>
<g>
</g>
<g>
</g>
<g>
</g>
<g>
</g>
<g>
</g>
<g>
</g>
<g>
</g>
<g>
</g>
<g>
</g>
<g>
</g>
<g>
</g>
<g>
</g>
</svg>
