<?xml version="1.0" encoding="iso-8859-1"?>
<!-- Generator: Adobe Illustrator 19.0.0, SVG Export Plug-In . SVG Version: 6.00 Build 0)  -->
<svg version="1.1" id="Capa_1" xmlns="http://www.w3.org/2000/svg" xmlns:xlink="http://www.w3.org/1999/xlink" x="0px" y="0px"
	 viewBox="0 0 512.003 512.003" style="enable-background:new 0 0 512.003 512.003;" xml:space="preserve">
<g>
	<path style="fill:#383856;" d="M256.003,508.344c-2.262,0-4.439-0.896-6.036-2.501L2.398,258.273
		c-3.278-3.389-3.184-8.793,0.213-12.071c3.312-3.193,8.554-3.193,11.858,0l241.534,241.534l241.534-241.534
		c3.389-3.278,8.793-3.184,12.071,0.205c3.193,3.312,3.193,8.554,0,11.866l-247.57,247.57
		C260.434,507.439,258.266,508.344,256.003,508.344z"/>
	<path style="fill:#383856;" d="M256.003,508.344c-0.871,0-1.733-0.128-2.561-0.384c-4.507-1.391-7.026-6.181-5.626-10.68v-0.009
		l76.832-247.57c1.4-4.499,6.189-7.017,10.688-5.617c4.499,1.4,7.017,6.189,5.617,10.688l-76.832,247.57
		C263.012,505.894,259.726,508.327,256.003,508.344z"/>
	<path style="fill:#383856;" d="M256.003,508.344c-2.74,0-5.318-1.306-6.923-3.526L69.805,257.248
		c-2.766-3.816-1.912-9.16,1.904-11.926c3.816-2.766,9.16-1.912,11.926,1.904l0,0l179.275,247.57
		c2.766,3.816,1.921,9.152-1.904,11.926C259.555,507.772,257.796,508.344,256.003,508.344z"/>
	<path style="fill:#383856;" d="M256.003,508.344c-4.712,0-8.537-3.825-8.528-8.545c0-1.801,0.572-3.551,1.622-5.003l179.275-247.57
		c2.766-3.816,8.11-4.67,11.926-1.904c3.816,2.766,4.67,8.11,1.904,11.926l-179.275,247.57
		C261.313,507.038,258.744,508.344,256.003,508.344z"/>
</g>
<path style="fill:#FFD33F;" d="M256.003,3.702c92.403,53.56,157.608,143.949,179.275,248.535l0,0
	c10.774-18.858,34.805-25.414,53.663-14.632c6.095,3.483,11.149,8.537,14.632,14.632l0,0c0-136.727-110.843-247.57-247.57-247.57
	l0,0V3.702L256.003,3.702z"/>
<path style="fill:#383856;" d="M256.003,508.344c-3.731,0-7.034-2.416-8.153-5.976l-76.832-247.57
	c-1.4-4.499,1.118-9.288,5.617-10.688c4.499-1.4,9.288,1.118,10.688,5.617l76.832,247.57c1.4,4.499-1.118,9.288-5.617,10.688h-0.009
	C257.711,508.224,256.857,508.344,256.003,508.344z"/>
<path style="fill:#FFD33F;" d="M256.003,4.667c-136.727,0-247.57,110.843-247.57,247.57l0,0
	c10.774-18.858,34.805-25.414,53.663-14.632c6.095,3.483,11.149,8.537,14.632,14.632l0,0C98.395,147.652,163.6,57.254,256.003,3.694
	V4.667z"/>
<path style="fill:#EA3836;" d="M256.003,3.694C163.6,57.254,98.395,147.652,76.729,252.237l0,0l7.828-7.828
	c24.296-24.296,63.694-24.296,87.99,0.009c2.424,2.424,4.636,5.037,6.625,7.82l0,0c-0.145-88.468,26.797-174.861,77.191-247.57
	L256.003,3.694z"/>
<path style="fill:#91CECE;" d="M179.171,252.237c-0.145-88.468,26.797-174.861,77.191-247.57h-0.717
	c50.393,72.709,77.336,159.102,77.191,247.57l0,0C287.641,217.091,224.357,217.091,179.171,252.237z"/>
<path style="fill:#EA3836;" d="M435.278,252.237C413.612,147.652,348.407,57.263,256.003,3.702l-0.359,0.965
	c50.393,72.709,77.336,159.102,77.191,247.57l3.987-4.653c22.367-26.089,61.645-29.102,87.734-6.736
	c2.416,2.074,4.67,4.328,6.736,6.736L435.278,252.237z"/>
<path style="fill:#FFD33F;" d="M257.651,4.71c-0.555-0.324-1.084-0.691-1.648-1.007l0,0C256.567,4.018,257.096,4.385,257.651,4.71z"
	/>
<g>
	<path style="fill:#FFAC3E;" d="M435.278,252.237L435.278,252.237c10.774-18.858,34.805-25.414,53.663-14.632
		c6.095,3.483,11.149,8.537,14.632,14.632l0,0c0.068-60.066-21.786-118.082-61.466-163.174
		c-19.268,12.652-39.261,24.159-59.886,34.463C407.764,162.745,425.76,206.402,435.278,252.237z"/>
	<path style="fill:#FFAC3E;" d="M86.034,216.655c-29.512,5.515-55.609,9.553-76.482,12.413c-0.709,7.632-1.118,15.349-1.118,23.169
		l0,0c10.774-18.858,34.805-25.414,53.663-14.632c6.095,3.483,11.149,8.537,14.632,14.632l0,0
		C79.239,240.14,82.397,228.334,86.034,216.655z"/>
</g>
<polygon style="fill:#EA3836;" points="256.003,3.702 256.003,3.694 256.003,3.711 "/>
<path style="fill:#D62121;" d="M86.034,216.655c-3.637,11.678-6.795,23.485-9.305,35.582l0,0l7.828-7.828
	c24.296-24.296,63.694-24.296,87.99,0.009c2.424,2.424,4.636,5.037,6.625,7.82c0.017-19.037,1.281-38.057,3.765-56.933
	C148.481,204.132,115.58,211.132,86.034,216.655z"/>
<path style="fill:#EA3836;" d="M255.645,4.667l0.359-0.956l0,0c-0.555,0.324-1.093,0.691-1.648,1.016c0.435,0,0.854,0,1.298,0
	L255.645,4.667z"/>
<path style="fill:#83B2B7;" d="M182.936,195.304c-2.484,18.875-3.748,37.895-3.765,56.933c45.194-35.146,108.47-35.146,153.664,0
	c0.017-34.113-3.97-68.116-11.866-101.307C275.954,168.652,229.846,183.472,182.936,195.304z"/>
<path style="fill:#D62121;" d="M382.221,123.526c-19.84,9.971-40.388,19.063-61.252,27.403
	c7.897,33.191,11.883,67.194,11.866,101.307l3.987-4.653c22.367-26.089,61.645-29.102,87.734-6.736
	c2.416,2.074,4.67,4.328,6.736,6.736l3.987,4.653l0,0C425.76,206.402,407.764,162.745,382.221,123.526z"/>
<g>
	<polygon style="fill:#EA3836;" points="256.003,3.702 256.003,3.702 256.003,3.702 256.003,3.711 	"/>
	<path style="fill:#EA3836;" d="M256.362,4.667L256.362,4.667c0.435,0,0.854,0,1.298,0c-0.555-0.324-1.084-0.691-1.648-1.007l0,0
		L256.362,4.667z"/>
	<polygon style="fill:#EA3836;" points="256.003,4.667 256.003,4.667 256.003,3.711 256.003,3.702 256.003,3.711 	"/>
	<polygon style="fill:#EA3836;" points="256.003,3.711 256.003,4.667 256.362,4.667 	"/>
	<polygon style="fill:#EA3836;" points="256.003,3.711 255.645,4.667 256.003,4.667 	"/>
	<path style="fill:#EA3836;" d="M256.003,4.667h-0.35c0.12,0.171,0.23,0.359,0.35,0.529c0.12-0.171,0.23-0.359,0.35-0.529H256.003z"
		/>
</g>
<g>
</g>
<g>
</g>
<g>
</g>
<g>
</g>
<g>
</g>
<g>
</g>
<g>
</g>
<g>
</g>
<g>
</g>
<g>
</g>
<g>
</g>
<g>
</g>
<g>
</g>
<g>
</g>
<g>
</g>
</svg>
