<?xml version="1.0" encoding="iso-8859-1"?>
<!-- Generator: Adobe Illustrator 19.0.0, SVG Export Plug-In . SVG Version: 6.00 Build 0)  -->
<svg version="1.1" id="Capa_1" xmlns="http://www.w3.org/2000/svg" xmlns:xlink="http://www.w3.org/1999/xlink" x="0px" y="0px"
	 viewBox="0 0 512 512" style="enable-background:new 0 0 512 512;" xml:space="preserve">
<path style="fill:#EA3836;" d="M476.69,459.034H512v-97.103C512,303.431,464.569,256,406.069,256l0,0
	c-58.5,0-105.931-47.431-105.931-105.931l0,0C300.138,67.187,232.951,0,150.069,0l0,0C67.187,0,0,67.187,0,150.069v308.966h35.31"/>
<path style="fill:#D62121;" d="M412.054,256.3C305.708,375.614,77.612,390.285,0,391.715v67.319h512v-97.103
	C511.974,305.788,468.109,259.434,412.054,256.3z"/>
<rect x="35.31" y="397.241" style="fill:#FFD33F;" width="441.379" height="70.621"/>
<g>
	<rect x="61.793" y="397.241" style="fill:#383856;" width="17.655" height="44.138"/>
	<rect x="97.103" y="397.241" style="fill:#383856;" width="17.655" height="44.138"/>
	<rect x="132.414" y="397.241" style="fill:#383856;" width="17.655" height="44.138"/>
	<rect x="273.655" y="397.241" style="fill:#383856;" width="17.655" height="44.138"/>
	<rect x="308.966" y="397.241" style="fill:#383856;" width="17.655" height="44.138"/>
	<rect x="344.276" y="397.241" style="fill:#383856;" width="17.655" height="44.138"/>
	<rect x="432.552" y="397.241" style="fill:#383856;" width="17.655" height="44.138"/>
	<rect x="397.241" y="397.241" style="fill:#383856;" width="17.655" height="44.138"/>
	<rect x="185.379" y="397.241" style="fill:#383856;" width="17.655" height="44.138"/>
	<rect x="220.69" y="397.241" style="fill:#383856;" width="17.655" height="44.138"/>
</g>
<polyline style="fill:#874D1B;" points="185.379,467.862 185.379,512 326.621,512 326.621,467.862 "/>
<g>
	<path style="fill:#FFD33F;" d="M406.069,123.586c-4.873,0-8.828-3.955-8.828-8.828V17.655c0-4.873,3.955-8.828,8.828-8.828
		c2.339,0,4.582,0.927,6.241,2.586l52.966,52.966c3.39,3.505,3.293,9.092-0.221,12.482c-3.425,3.302-8.845,3.302-12.262,0
		l-37.897-37.897v75.794C414.897,119.631,410.942,123.586,406.069,123.586z"/>
	<path style="fill:#FFD33F;" d="M459.034,123.586c-2.339,0-4.59-0.927-6.241-2.586l-52.966-52.966
		c-3.39-3.505-3.293-9.092,0.221-12.482c3.425-3.302,8.845-3.302,12.262,0l52.966,52.966c3.443,3.452,3.443,9.039,0,12.482
		C463.616,122.659,461.374,123.586,459.034,123.586z"/>
	<path style="fill:#FFD33F;" d="M459.034,176.552c-4.873,0-8.828-3.955-8.828-8.828V70.621c0-4.873,3.955-8.828,8.828-8.828
		s8.828,3.955,8.828,8.828v97.103C467.862,172.597,463.907,176.552,459.034,176.552z"/>
	<path style="fill:#FFD33F;" d="M436.966,194.207c-15.81,1.103-29.572-10.69-30.897-26.483
		c2.648-17.064,18.635-28.751,35.699-26.094c13.453,2.092,24.002,12.641,26.094,26.094
		C466.538,183.517,452.776,195.31,436.966,194.207z M436.966,158.897c-7.062,0-13.241,4.131-13.241,8.828s6.179,8.828,13.241,8.828
		s13.241-4.131,13.241-8.828S444.028,158.897,436.966,158.897z"/>
	<path style="fill:#FFD33F;" d="M384,141.241c-15.81,1.103-29.572-10.69-30.897-26.483c2.648-17.064,18.635-28.751,35.699-26.094
		c13.453,2.092,24.002,12.641,26.094,26.094C413.572,130.551,399.81,142.345,384,141.241z M384,105.931
		c-7.062,0-13.241,4.131-13.241,8.828s6.179,8.828,13.241,8.828s13.241-4.131,13.241-8.828S391.062,105.931,384,105.931z"/>
	<path style="fill:#FFD33F;" d="M150.069,291.31c-4.873,0-8.828-3.955-8.828-8.828v-79.448c0-4.873,3.955-8.828,8.828-8.828
		c2.339,0,4.581,0.927,6.241,2.586l44.138,44.138c3.39,3.505,3.293,9.092-0.221,12.482c-3.425,3.302-8.845,3.302-12.262,0
		l-29.069-29.069v58.138C158.897,287.356,154.942,291.31,150.069,291.31z"/>
	<path style="fill:#FFD33F;" d="M128,308.966c-15.81,1.103-29.572-10.69-30.897-26.483C98.428,266.69,112.19,254.897,128,256
		c15.81-1.103,29.572,10.69,30.897,26.483C157.572,298.275,143.81,310.069,128,308.966z M128,273.655
		c-7.062,0-13.241,4.131-13.241,8.828s6.179,8.828,13.241,8.828s13.241-4.131,13.241-8.828S135.062,273.655,128,273.655z"/>
</g>
<g>
	<path style="fill:#FFAC3E;" d="M397.241,397.886v-0.644h-35.31v1.977C373.301,398.724,385.068,398.283,397.241,397.886z"/>
	<path style="fill:#FFAC3E;" d="M344.276,400.031v-2.79h-17.655v3.708C332.394,400.631,338.282,400.322,344.276,400.031z"/>
	<path style="fill:#FFAC3E;" d="M273.655,404.445v-7.203h-35.31v10.284C249.503,406.44,261.244,405.407,273.655,404.445z"/>
	<path style="fill:#FFAC3E;" d="M132.414,422.179v-24.938h-17.655v28.628C120.249,424.633,126.137,423.406,132.414,422.179z"/>
	<path style="fill:#FFAC3E;" d="M308.966,401.991v-4.749H291.31v5.906C297.066,402.741,302.954,402.353,308.966,401.991z"/>
	<path style="fill:#FFAC3E;" d="M185.379,413.59v-16.349h-35.31v21.707C160.803,417.112,172.57,415.329,185.379,413.59z"/>
	<path style="fill:#FFAC3E;" d="M97.103,430.186v-32.945H79.448v38.1C84.745,433.646,90.545,431.925,97.103,430.186z"/>
	<path style="fill:#FFAC3E;" d="M62.817,441.379h-1.024v-44.138H35.31v61.793C35.31,459.034,38.541,451.372,62.817,441.379z"/>
	<path style="fill:#FFAC3E;" d="M220.69,409.318v-12.076h-17.655v14.124C208.737,410.65,214.599,409.98,220.69,409.318z"/>
</g>
<path style="fill:#FFD33F;" d="M419.69,397.241h-4.793v0.124L419.69,397.241z"/>
<g>
	<path style="fill:#202033;" d="M62.817,441.379c4.705-1.933,10.214-3.964,16.631-6.038v-38.1H61.793v44.138H62.817z"/>
	<path style="fill:#202033;" d="M114.759,425.869v-28.628H97.103v32.945C102.515,428.747,108.376,427.308,114.759,425.869z"/>
	<path style="fill:#202033;" d="M150.069,418.948v-21.707h-17.655v24.938C137.984,421.076,143.89,420.008,150.069,418.948z"/>
	<path style="fill:#202033;" d="M291.31,403.147v-5.906h-17.655v7.203C279.393,404.003,285.299,403.571,291.31,403.147z"/>
	<path style="fill:#202033;" d="M326.621,400.949v-3.708h-17.655v4.749C314.73,401.629,320.618,401.284,326.621,400.949z"/>
	<path style="fill:#202033;" d="M361.931,399.219v-1.977h-17.655v2.79C350.058,399.748,355.928,399.475,361.931,399.219z"/>
	<path style="fill:#202033;" d="M414.897,397.365v-0.124h-17.655v0.644C403.032,397.7,408.92,397.533,414.897,397.365z"/>
	<path style="fill:#202033;" d="M203.034,411.366v-14.124h-17.655v16.349C191.047,412.822,196.935,412.081,203.034,411.366z"/>
	<path style="fill:#202033;" d="M238.345,407.526v-10.284H220.69v12.076C226.383,408.717,232.298,408.108,238.345,407.526z"/>
</g>
<path style="fill:#6B3713;" d="M326.621,467.862H185.379v38.7c16.772-8.987,59.224-26.227,141.241-29.361V467.862z"/>
<g>
</g>
<g>
</g>
<g>
</g>
<g>
</g>
<g>
</g>
<g>
</g>
<g>
</g>
<g>
</g>
<g>
</g>
<g>
</g>
<g>
</g>
<g>
</g>
<g>
</g>
<g>
</g>
<g>
</g>
</svg>
