<?xml version="1.0" encoding="iso-8859-1"?>
<!-- Generator: Adobe Illustrator 19.0.0, SVG Export Plug-In . SVG Version: 6.00 Build 0)  -->
<svg version="1.1" id="Capa_1" xmlns="http://www.w3.org/2000/svg" xmlns:xlink="http://www.w3.org/1999/xlink" x="0px" y="0px"
	 viewBox="0 0 512 512" style="enable-background:new 0 0 512 512;" xml:space="preserve">
<path style="fill:#FFD33F;" d="M395.602,312.407l8.678-216.949H5.094l6.856,253.535c1.015,37.61,31.805,67.567,69.424,67.549
	h210.094V312.407H395.602"/>
<path style="fill:#FFAC3E;" d="M40.431,403.118c11.863,8.721,26.199,13.425,40.917,13.425h210.12V312.407h104.136l8.678-216.949
	h-1.276C341.417,296.596,142.353,375.383,40.431,403.118z"/>
<path style="fill:#EA3836;" d="M291.467,312.407l-7.107,163.371c-0.833,19.152,14.015,35.354,33.167,36.187
	c0.521,0.026,1.033,0.035,1.545,0.035h153.088c19.17,0.017,34.729-15.508,34.747-34.677c0-0.512-0.009-1.033-0.035-1.545
	l-7.133-163.371H291.467z"/>
<g>
	<path style="fill:#383856;" d="M282.789,147.525h-17.356V78.102c0-33.549-27.197-60.746-60.746-60.746
		s-60.746,27.197-60.746,60.746v69.424h-17.356V78.102C126.585,34.964,161.549,0,204.687,0s78.102,34.964,78.102,78.102V147.525z"/>
	<path style="fill:#383856;" d="M395.602,407.864c-23.951-0.026-43.364-19.439-43.39-43.39v-26.034h17.356v26.034
		c0,14.379,11.654,26.034,26.034,26.034c14.379,0,26.034-11.655,26.034-26.034v-26.034h17.356v26.034
		C438.966,388.426,419.554,407.838,395.602,407.864z"/>
</g>
<path style="fill:#D62121;" d="M315.956,511.679c1.033,0.095,2.031,0.321,3.089,0.321h153.114
	c19.17,0.017,34.729-15.508,34.747-34.677c0-0.512-0.009-1.033-0.035-1.545l-3.662-82.918
	C462.813,480.759,376.424,505.622,315.956,511.679z"/>
<g>
</g>
<g>
</g>
<g>
</g>
<g>
</g>
<g>
</g>
<g>
</g>
<g>
</g>
<g>
</g>
<g>
</g>
<g>
</g>
<g>
</g>
<g>
</g>
<g>
</g>
<g>
</g>
<g>
</g>
</svg>
