<?xml version="1.0" encoding="iso-8859-1"?>
<!-- Generator: Adobe Illustrator 19.0.0, SVG Export Plug-In . SVG Version: 6.00 Build 0)  -->
<svg version="1.1" id="Capa_1" xmlns="http://www.w3.org/2000/svg" xmlns:xlink="http://www.w3.org/1999/xlink" x="0px" y="0px"
	 viewBox="0 0 512 512" style="enable-background:new 0 0 512 512;" xml:space="preserve">
<path style="fill:#FFD33F;" d="M0,418.366L0,418.366C0,470.078,41.922,512,93.634,512l0,0c24.832,0.009,48.649-9.86,66.207-27.427
	l324.732-324.732c17.567-17.558,27.436-41.375,27.427-66.207l0,0C512,41.922,470.078,0,418.366,0l0,0
	c-24.832-0.009-48.649,9.86-66.207,27.427L27.427,352.159C9.86,369.717-0.009,393.534,0,418.366z"/>
<path style="fill:#FFAC3E;" d="M26.933,484.034C44.5,501.945,68.546,512.026,93.634,512l0,0c24.832,0.009,48.649-9.86,66.207-27.427
	l324.732-324.732c33.598-33.554,36.705-86.961,7.23-124.186C366.83,317.334,132.131,440.991,26.933,484.034z"/>
<g>
	<path style="fill:#91CECE;" d="M91.931,340.621l1.518-1.518c6.894-6.894,18.07-6.894,24.964,0l54.484,54.484
		c6.894,6.894,6.894,18.07,0,24.964l-1.518,1.518c-6.894,6.894-18.07,6.894-24.964,0l-54.484-54.484
		C85.036,358.691,85.036,347.516,91.931,340.621z"/>
	<path style="fill:#91CECE;" d="M339.103,93.449l1.518-1.518c6.894-6.894,18.07-6.894,24.964,0l54.484,54.484
		c6.894,6.894,6.894,18.07,0,24.964l-1.518,1.518c-6.894,6.894-18.07,6.894-24.964,0l-54.484-54.484
		C332.209,111.519,332.209,100.343,339.103,93.449z"/>
</g>
<polygon style="fill:#EA3836;" points="300.138,300.138 326.621,185.379 211.862,211.862 185.379,326.621 "/>
<polygon style="fill:#FFD33F;" points="238.345,238.345 282.483,229.517 273.655,273.655 229.517,282.483 "/>
<g>
	<path style="fill:#383856;" d="M123.586,211.862c-4.873,0-8.828-3.955-8.828-8.828c0-2.339,0.927-4.582,2.586-6.241L267.414,46.724
		c3.505-3.39,9.092-3.293,12.482,0.221c3.302,3.425,3.302,8.845,0,12.262L129.827,209.276
		C128.177,210.935,125.926,211.862,123.586,211.862z"/>
	<path style="fill:#383856;" d="M132.414,150.069c-4.873,0-8.828-3.955-8.828-8.828c0-2.339,0.927-4.582,2.586-6.241l79.448-79.448
		c3.505-3.39,9.092-3.293,12.482,0.221c3.302,3.425,3.302,8.845,0,12.262l-79.448,79.448
		C137.004,149.142,134.753,150.069,132.414,150.069z"/>
	<path style="fill:#383856;" d="M88.276,194.207c-4.873,0-8.828-3.955-8.828-8.828c0-2.339,0.927-4.582,2.586-6.241l17.655-17.655
		c3.505-3.39,9.092-3.293,12.482,0.221c3.302,3.425,3.302,8.845,0,12.262L94.517,191.62
		C92.866,193.28,90.615,194.207,88.276,194.207z"/>
	<path style="fill:#383856;" d="M88.276,141.241c-4.873,0-8.828-3.955-8.828-8.828c0-2.339,0.927-4.582,2.586-6.241L135,73.207
		c3.505-3.39,9.092-3.293,12.482,0.221c3.302,3.425,3.302,8.845,0,12.262l-52.966,52.966
		C92.866,140.314,90.615,141.241,88.276,141.241z"/>
	<path style="fill:#383856;" d="M366.345,339.862c-4.873,0-8.828-3.955-8.828-8.828c0-2.339,0.927-4.582,2.586-6.241l75.034-75.034
		c3.505-3.39,9.092-3.293,12.482,0.212c3.302,3.425,3.302,8.845,0,12.27l-75.034,75.035
		C370.935,338.935,368.684,339.862,366.345,339.862z"/>
	<path style="fill:#383856;" d="M282.483,423.724c-4.873,0-8.828-3.955-8.828-8.828c0-2.339,0.927-4.582,2.586-6.241l52.966-52.966
		c3.505-3.39,9.092-3.293,12.482,0.212c3.302,3.425,3.302,8.845,0,12.27l-52.966,52.966
		C287.073,422.797,284.822,423.724,282.483,423.724z"/>
	<path style="fill:#383856;" d="M353.103,406.069c-4.873,0-8.828-3.955-8.828-8.828c0-2.339,0.927-4.582,2.586-6.241l88.276-88.276
		c3.505-3.39,9.092-3.293,12.482,0.212c3.302,3.425,3.302,8.845,0,12.27l-88.276,88.276
		C357.694,405.142,355.443,406.069,353.103,406.069z"/>
	<path style="fill:#383856;" d="M353.103,459.034c-4.873,0-8.828-3.955-8.828-8.828c0-2.339,0.927-4.582,2.586-6.241l26.483-26.483
		c3.505-3.39,9.092-3.293,12.482,0.212c3.302,3.425,3.302,8.845,0,12.27l-26.483,26.483
		C357.694,458.108,355.443,459.034,353.103,459.034z"/>
	<path style="fill:#383856;" d="M406.069,406.069c-4.873,0-8.828-3.955-8.828-8.828c0-2.339,0.927-4.582,2.586-6.241l17.655-17.655
		c3.505-3.39,9.092-3.293,12.482,0.212c3.302,3.425,3.302,8.845,0,12.27l-17.655,17.655
		C410.659,405.142,408.408,406.069,406.069,406.069z"/>
	<path style="fill:#383856;" d="M308.966,450.207c-4.873,0-8.828-3.955-8.828-8.828c0-2.339,0.927-4.582,2.586-6.241l17.655-17.655
		c3.505-3.39,9.092-3.293,12.482,0.212c3.302,3.425,3.302,8.845,0,12.27l-17.655,17.655
		C313.556,449.28,311.305,450.207,308.966,450.207z"/>
</g>
<g>
	<path style="fill:#83B2B7;" d="M172.897,409.724l-1.518,1.518c-6.894,6.894-18.07,6.894-24.964,0l-54.484-54.484
		c-2.207-2.233-3.778-5.023-4.537-8.068c-1.598,6.038,0.132,12.473,4.537,16.896l54.484,54.484c6.894,6.894,18.07,6.894,24.964,0
		l1.518-1.518c4.405-4.423,6.135-10.858,4.537-16.896C176.675,404.701,175.104,407.49,172.897,409.724z"/>
	<path style="fill:#83B2B7;" d="M420.07,162.551l-1.518,1.518c-6.894,6.894-18.07,6.894-24.964,0l-54.484-54.484
		c-2.207-2.233-3.778-5.023-4.537-8.068c-1.598,6.038,0.132,12.473,4.537,16.896l54.484,54.484c6.894,6.894,18.07,6.894,24.964,0
		l1.518-1.518c4.405-4.423,6.135-10.858,4.537-16.896C423.848,157.528,422.276,160.318,420.07,162.551z"/>
</g>
<g>
</g>
<g>
</g>
<g>
</g>
<g>
</g>
<g>
</g>
<g>
</g>
<g>
</g>
<g>
</g>
<g>
</g>
<g>
</g>
<g>
</g>
<g>
</g>
<g>
</g>
<g>
</g>
<g>
</g>
</svg>
