<?xml version="1.0" encoding="iso-8859-1"?>
<!-- Generator: Adobe Illustrator 19.0.0, SVG Export Plug-In . SVG Version: 6.00 Build 0)  -->
<svg version="1.1" id="Capa_1" xmlns="http://www.w3.org/2000/svg" xmlns:xlink="http://www.w3.org/1999/xlink" x="0px" y="0px"
	 viewBox="0 0 512.001 512.001" style="enable-background:new 0 0 512.001 512.001;" xml:space="preserve">
<polygon style="fill:#EA3836;" points="453.559,476.534 497.683,476.534 497.683,335.338 3.5,335.338 3.5,476.534 47.623,476.534 
	"/>
<path style="fill:#D62121;" d="M3.5,475.978v0.556h494.183V335.338h-46.277C311.711,449.124,54.145,472.439,3.5,475.978z"/>
<polyline style="fill:#91CECE;" points="497.683,335.338 497.683,88.247 321.189,88.247 321.189,335.338 "/>
<g>
	<circle style="fill:#874D1B;" cx="109.396" cy="441.235" r="70.598"/>
	<circle style="fill:#874D1B;" cx="391.813" cy="441.235" r="70.598"/>
</g>
<g>
	<circle style="fill:#FFD33F;" cx="109.396" cy="441.235" r="26.474"/>
	<circle style="fill:#FFD33F;" cx="391.813" cy="441.235" r="26.474"/>
	<path style="fill:#FFD33F;" d="M321.189,123.546H109.396C50.915,123.546,3.5,170.961,3.5,229.442l0,0
		c0,58.481,47.415,105.896,105.896,105.896h211.793V123.546z"/>
</g>
<rect x="215.293" style="fill:#EA3836;" width="52.948" height="123.546"/>
<path style="fill:#FFD33F;" d="M497.683,88.247l9.91-29.722c3.08-9.248-1.924-19.238-11.172-22.326c-1.8-0.591-3.68-0.9-5.577-0.9
	H328.028c-9.751-0.009-17.658,7.88-17.667,17.632c0,1.906,0.3,3.795,0.9,5.595l9.928,29.722H497.683z"/>
<rect x="382.988" style="fill:#EA3836;" width="52.948" height="35.299"/>
<rect x="365.339" y="132.37" style="fill:#383856;" width="88.247" height="88.247"/>
<rect x="109.396" y="52.948" style="fill:#EA3836;" width="52.948" height="70.598"/>
<path style="fill:#FFAC3E;" d="M39.416,308.776c19.291,17.12,44.185,26.571,69.98,26.562h211.793V161.492
	C272.344,273.671,132.676,302.493,39.416,308.776z"/>
<g>
	<path style="fill:#D62121;" d="M162.344,62.744v-9.795h-52.948v43.17C120.542,84.717,140.874,66.882,162.344,62.744z"/>
	<path style="fill:#D62121;" d="M215.293,123.546h52.948V42.111C251.183,108.094,215.293,123.546,215.293,123.546z"/>
	<path style="fill:#D62121;" d="M382.962,35.299h52.948V11.993C418.869,30.119,382.962,35.299,382.962,35.299z"/>
</g>
<path style="fill:#FFAC3E;" d="M321.189,88.247h176.494l9.901-29.722c1.509-4.527,1.077-9.478-1.182-13.678
	C468.376,81.54,321.189,88.247,321.189,88.247z"/>
<g>
	<path style="fill:#83B2B7;" d="M497.683,88.662v-0.415H321.189v73.245C321.189,102.508,460.937,90.736,497.683,88.662z"/>
	<path style="fill:#83B2B7;" d="M321.189,335.338h176.494v-92.033C460.937,321.978,321.189,335.338,321.189,335.338z"/>
</g>
<path style="fill:#202033;" d="M453.559,141.689v-9.319h-88.247v62.655C384.321,163.98,417.228,144.09,453.559,141.689z"/>
<rect x="91.747" style="fill:#FFD33F;" width="88.247" height="52.948"/>
<path style="fill:#FFAC3E;" d="M91.747,52.948h88.247V24.374C156.079,52.948,91.747,52.948,91.747,52.948z"/>
<g>
	<path style="fill:#6B3713;" d="M154.693,387.113c24.921,29.986,20.826,74.498-9.16,99.419c-26.156,21.744-64.103,21.744-90.259,0
		c24.921,29.986,69.433,34.081,99.419,9.16s34.081-69.433,9.16-99.419C161.082,392.946,158.02,389.875,154.693,387.113z"/>
	<path style="fill:#6B3713;" d="M437.084,387.113c24.921,29.986,20.826,74.498-9.16,99.419c-26.156,21.744-64.103,21.744-90.259,0
		c24.921,29.986,69.433,34.081,99.419,9.16s34.081-69.433,9.16-99.419C443.473,392.946,440.411,389.875,437.084,387.113z"/>
</g>
<g>
	<path style="fill:#FFAC3E;" d="M123.11,418.697c2.559,4.121,3.918,8.869,3.936,13.714c0,14.623-11.852,26.474-26.474,26.474
		c-4.845-0.018-9.592-1.377-13.714-3.936c7.536,12.478,23.774,16.485,36.252,8.948s16.485-23.774,8.948-36.252
		C129.843,423.982,126.772,420.911,123.11,418.697z"/>
	<path style="fill:#FFAC3E;" d="M405.5,418.697c2.559,4.121,3.918,8.869,3.936,13.714c0,14.623-11.852,26.474-26.474,26.474
		c-4.845-0.018-9.592-1.377-13.714-3.936c7.536,12.478,23.774,16.485,36.252,8.948c12.478-7.536,16.485-23.774,8.948-36.252
		C412.233,423.982,409.162,420.911,405.5,418.697z"/>
</g>
<g>
</g>
<g>
</g>
<g>
</g>
<g>
</g>
<g>
</g>
<g>
</g>
<g>
</g>
<g>
</g>
<g>
</g>
<g>
</g>
<g>
</g>
<g>
</g>
<g>
</g>
<g>
</g>
<g>
</g>
</svg>
