<?xml version="1.0" encoding="iso-8859-1"?>
<!-- Generator: Adobe Illustrator 19.0.0, SVG Export Plug-In . SVG Version: 6.00 Build 0)  -->
<svg version="1.1" id="Capa_1" xmlns="http://www.w3.org/2000/svg" xmlns:xlink="http://www.w3.org/1999/xlink" x="0px" y="0px"
	 viewBox="0 0 512 512" style="enable-background:new 0 0 512 512;" xml:space="preserve">
<polygon style="fill:#874D1B;" points="418.133,337.067 358.4,396.8 273.067,396.8 238.933,430.933 128,430.933 93.867,465.067 
	0,465.067 0,507.733 256,507.733 512,507.733 512,465.067 512,396.8 512,337.067 "/>
<polygon style="fill:#FFD33F;" points="0,507.733 256,507.733 298.667,465.067 512,465.067 512,396.8 273.067,396.8 
	238.933,430.933 128,430.933 93.867,465.067 0,465.067 "/>
<g>
	<rect x="324.267" y="183.467" style="fill:#EA3836;" width="17.067" height="213.333"/>
	<rect x="324.267" y="123.733" style="fill:#EA3836;" width="17.067" height="25.6"/>
	<path style="fill:#EA3836;" d="M162.133,311.467l-12.8,76.851c-1.98,11.955,6.11,23.262,18.065,25.242
		c11.093,1.835,21.786-5.009,24.755-15.855L213.333,320v-85.333h-76.8L162.133,311.467z"/>
</g>
<path style="fill:#FFD33F;" d="M350.797,147.721L332.8,145.92v37.547h16.213c9.899-0.026,17.894-8.073,17.869-17.971
	C366.865,156.331,359.919,148.659,350.797,147.721z"/>
<path style="fill:#91CECE;" d="M281.6,140.8l-76.8-34.133h-32.119c-6.468,0-12.373,3.652-15.266,9.438l-3.814,7.629l-17.067,110.933
	h76.8V217.6l17.067-51.2l51.2,17.067h51.2V145.92L281.6,140.8z"/>
<path style="fill:#D62121;" d="M213.333,234.667l76.8,42.667l6.588,78.805c0.99,11.853-7.817,22.263-19.669,23.253
	c-0.572,0.051-1.152,0.077-1.732,0.077l0,0c-10.991,0.026-20.233-8.226-21.453-19.149l-6.4-57.387l-34.133-17.067"/>
<path style="fill:#383856;" d="M192,4.267h38.4v25.6c-27.204,0.009-53.299,10.769-72.593,29.943
	c-2.731-5.308-4.173-11.179-4.207-17.143C153.6,21.461,170.795,4.267,192,4.267z"/>
<path style="fill:#FFD33F;" d="M230.4,42.667c0.051,21.154-17.05,38.34-38.195,38.4c-14.575,0.034-27.904-8.201-34.398-21.257
	c19.294-19.174,45.389-29.935,72.593-29.943V42.667z"/>
<path style="fill:#FFAC3E;" d="M221.867,30.285v3.849c0,21.205-17.195,38.4-38.4,38.4c-8.047-0.009-15.881-2.603-22.349-7.39
	c12.314,17.152,36.198,21.069,53.35,8.755c10.052-7.219,15.991-18.859,15.932-31.232v-12.8
	C227.541,29.867,224.7,30.054,221.867,30.285z"/>
<path style="fill:#202033;" d="M230.4,4.267c0.375,9.421-2.654,18.654-8.533,26.018c2.833-0.23,5.675-0.418,8.533-0.418V4.267z"/>
<polygon style="fill:#D62121;" points="213.333,285.867 213.333,234.667 192.853,234.667 "/>
<path style="fill:#FFAC3E;" d="M332.8,166.4v17.067h16.213c9.54-0.034,17.382-7.535,17.835-17.067H332.8z"/>
<polygon style="fill:#83B2B7;" points="290.133,166.4 221.867,149.333 196.267,200.533 192.853,234.667 213.333,234.667 
	213.333,217.6 230.4,166.4 281.6,183.467 332.8,183.467 332.8,166.4 "/>
<g>
	<path style="fill:#6B3713;" d="M469.862,396.8H512v-59.733h-17.502C487.731,357.547,479.497,377.506,469.862,396.8z"/>
	<path style="fill:#6B3713;" d="M376.619,507.733H512v-42.667h-87.305C410.692,481.417,394.513,495.77,376.619,507.733z"/>
</g>
<path style="fill:#FFAC3E;" d="M424.695,465.067H512V396.8h-42.138C457.711,421.35,442.539,444.279,424.695,465.067z"/>
<g>
</g>
<g>
</g>
<g>
</g>
<g>
</g>
<g>
</g>
<g>
</g>
<g>
</g>
<g>
</g>
<g>
</g>
<g>
</g>
<g>
</g>
<g>
</g>
<g>
</g>
<g>
</g>
<g>
</g>
</svg>
