<?xml version="1.0" encoding="iso-8859-1"?>
<!-- Generator: Adobe Illustrator 19.0.0, SVG Export Plug-In . SVG Version: 6.00 Build 0)  -->
<svg version="1.1" id="Capa_1" xmlns="http://www.w3.org/2000/svg" xmlns:xlink="http://www.w3.org/1999/xlink" x="0px" y="0px"
	 viewBox="0 0 511.998 511.998" style="enable-background:new 0 0 511.998 511.998;" xml:space="preserve">
<path style="fill:#EA3836;" d="M459.271,464.651l-107.378-28.635l-88.985-88.985l-71.188-17.797L51.036,344.869
	c-9.771,1.086-16.809,9.886-15.724,19.657c0.062,0.569,0.151,1.139,0.276,1.7l26.268,124.783
	c3.195,14.433,17.485,23.545,31.919,20.351s23.545-17.485,20.36-31.919l-20.297-87.917l124.579-8.898l106.782,97.883l122.096,30.522
	c12.867,3.061,25.788-4.894,28.849-17.761C479.115,480.749,471.667,468.113,459.271,464.651z"/>
<path style="fill:#FFD33F;" d="M237.486,142.367h3.177c15.127-0.036,28.938-8.623,35.656-22.184l-18.625-18.624
	c-8.053-8.053-18.989-12.582-30.379-12.582v17.797L237.486,142.367z"/>
<path style="fill:#383856;" d="M240.663,62.281h-13.348v26.695c11.39,0,22.326,4.529,30.379,12.582l18.625,18.624
	c2.848-5.526,4.351-11.648,4.387-17.859C280.706,80.211,262.775,62.281,240.663,62.281z"/>
<path style="fill:#FFAC3E;" d="M141.836,13.704c-0.169,0.303-0.338,0.605-0.498,0.89c-0.481,0.934-0.908,1.886-1.281,2.865
	c-0.249,0.685-0.454,1.388-0.65,2.091s-0.436,1.486-0.587,2.251c-0.311,1.611-0.481,3.248-0.489,4.885v17.797h53.391V26.687
	c0.036-14.7-11.853-26.651-26.544-26.687c-8.373-0.027-16.275,3.898-21.321,10.589l0,0
	C143.109,11.586,142.432,12.618,141.836,13.704z"/>
<polygon style="fill:#83B2B7;" points="173.924,44.484 138.33,44.484 138.33,115.671 198.511,227.427 209.518,231.351 
	200.619,195.758 182.823,115.671 "/>
<path style="fill:#91CECE;" d="M278.561,284.422c1.424-5.677,1.895-11.55,1.415-17.388l-6.807-81.652
	c-0.765-9.228-8.48-16.32-17.735-16.32h-10.322l-17.797-62.289V44.484h-53.391v71.188l26.695,80.086l-8.898,133.477l71.188,17.797
	L278.561,284.422z"/>
<g>
	<path style="fill:#FFD33F;" d="M177.43,13.704c-0.169,0.303-0.338,0.605-0.498,0.89c-0.481,0.934-0.908,1.886-1.281,2.865
		c-0.249,0.685-0.454,1.388-0.65,2.091c-0.196,0.703-0.436,1.486-0.587,2.251c-0.311,1.611-0.481,3.248-0.489,4.885v17.797h53.391
		V26.687C227.35,11.986,215.462,0.036,200.771,0c-8.373-0.027-16.275,3.898-21.321,10.589l0,0
		C178.703,11.586,178.026,12.618,177.43,13.704z"/>
	<path style="fill:#FFD33F;" d="M179.45,10.589L179.45,10.589c-0.747,0.988-1.424,2.029-2.02,3.114
		C178.026,12.618,178.703,11.586,179.45,10.589z"/>
	<path style="fill:#FFD33F;" d="M174.414,21.828c0.151-0.765,0.374-1.504,0.587-2.251C174.814,20.324,174.556,21.054,174.414,21.828
		z"/>
	<path style="fill:#FFD33F;" d="M175.65,17.486c0.374-0.979,0.801-1.931,1.281-2.865C176.442,15.546,176.015,16.507,175.65,17.486z"
		/>
</g>
<path style="fill:#83B2B7;" d="M225.758,337.741l37.151,9.29l13.268-53.062C260.933,310.272,244.035,324.945,225.758,337.741z"/>
<path style="fill:#D62121;" d="M459.271,464.651l-107.378-28.635l-88.985-88.985l-37.151-9.29
	c-32.853,23.011-69.194,40.586-107.627,52.047l100.286-7.163l106.782,97.883l122.096,30.522
	c12.867,3.061,25.788-4.894,28.849-17.761C479.115,480.749,471.667,468.113,459.271,464.651z"/>
<path style="fill:#FFAC3E;" d="M234.879,133.246l2.607,9.121h3.177c15.127-0.036,28.938-8.623,35.656-22.184l-8.898-8.898
	C261.174,123.805,248.822,132.142,234.879,133.246z"/>
<path style="fill:#202033;" d="M264.101,69.987c8.907,11.995,10.198,28.03,3.319,41.298l8.898,8.898
	C285.315,102.742,280.109,81.341,264.101,69.987z"/>
<path style="fill:#D62121;" d="M114.135,479.458l-20.297-87.935l5.143,118.296C110.638,504.623,116.992,491.898,114.135,479.458z"/>
<g>
</g>
<g>
</g>
<g>
</g>
<g>
</g>
<g>
</g>
<g>
</g>
<g>
</g>
<g>
</g>
<g>
</g>
<g>
</g>
<g>
</g>
<g>
</g>
<g>
</g>
<g>
</g>
<g>
</g>
</svg>
